<svg xmlns="http://www.w3.org/2000/svg" xmlns:xlink="http://www.w3.org/1999/xlink" width="50" zoomAndPan="magnify" viewBox="0 0 37.5 37.499999" height="50" preserveAspectRatio="xMidYMid meet" version="1.0"><defs><clipPath id="772bde2d78"><path d="M 0 0 L 37.007812 0 L 37.007812 37.007812 L 0 37.007812 Z M 0 0 " clip-rule="nonzero"/></clipPath></defs><path fill="#ffffff" d="M 18.75 14.59375 C 16.460938 14.59375 14.59375 16.460938 14.59375 18.75 C 14.59375 21.039062 16.460938 22.90625 18.75 22.90625 C 21.039062 22.90625 22.90625 21.039062 22.90625 18.75 C 22.90625 16.460938 21.039062 14.59375 18.75 14.59375 Z M 18.75 14.59375 " fill-opacity="1" fill-rule="nonzero"/><path fill="#ffffff" d="M 24.335938 8.554688 L 13.164062 8.554688 C 10.632812 8.554688 8.554688 10.617188 8.554688 13.164062 L 8.554688 24.335938 C 8.554688 26.867188 10.617188 28.945312 13.164062 28.945312 L 24.335938 28.945312 C 26.867188 28.945312 28.945312 26.882812 28.945312 24.335938 L 28.945312 13.164062 C 28.929688 10.617188 26.867188 8.554688 24.335938 8.554688 Z M 18.75 25 C 15.292969 25 12.484375 22.191406 12.484375 18.734375 C 12.484375 15.277344 15.292969 12.46875 18.75 12.46875 C 22.207031 12.46875 25.015625 15.277344 25.015625 18.734375 C 25 22.191406 22.191406 25 18.75 25 Z M 25.453125 13.523438 C 24.625 13.523438 23.945312 12.839844 23.945312 12.011719 C 23.945312 11.183594 24.625 10.503906 25.453125 10.503906 C 26.28125 10.503906 26.964844 11.183594 26.964844 12.011719 C 26.964844 12.855469 26.296875 13.523438 25.453125 13.523438 Z M 25.453125 13.523438 " fill-opacity="1" fill-rule="nonzero"/><g clip-path="url(#772bde2d78)"><path fill="#ffffff" d="M 18.75 0 C 8.394531 0 0 8.394531 0 18.75 C 0 29.105469 8.394531 37.5 18.75 37.5 C 29.105469 37.5 37.5 29.105469 37.5 18.75 C 37.484375 8.394531 29.089844 0 18.75 0 Z M 31.039062 24.335938 C 31.039062 28.035156 28.019531 31.054688 24.316406 31.054688 L 13.164062 31.054688 C 9.464844 31.054688 6.445312 28.035156 6.445312 24.335938 L 6.445312 13.164062 C 6.445312 9.464844 9.464844 6.445312 13.164062 6.445312 L 24.335938 6.445312 C 28.035156 6.445312 31.054688 9.464844 31.054688 13.164062 L 31.054688 24.335938 Z M 31.039062 24.335938 " fill-opacity="1" fill-rule="nonzero"/></g></svg>