<svg xmlns="http://www.w3.org/2000/svg" xmlns:xlink="http://www.w3.org/1999/xlink" width="166" zoomAndPan="magnify" viewBox="0 0 124.5 124.499995" height="166" preserveAspectRatio="xMidYMid meet" version="1.0"><defs><clipPath id="7a958caafd"><path d="M 0 0 L 124.003906 0 L 124.003906 124.003906 L 0 124.003906 Z M 0 0 " clip-rule="nonzero"/></clipPath><clipPath id="4b0c7f0e72"><path d="M 6.324219 6.324219 L 118.074219 6.324219 L 118.074219 118.074219 L 6.324219 118.074219 Z M 6.324219 6.324219 " clip-rule="nonzero"/></clipPath></defs><g clip-path="url(#7a958caafd)"><path fill="#ffffff" d="M 62.105469 0 C 28.191406 0 -0.00390625 27.953125 -0.015625 61.585938 C -0.0273438 96.703125 27.464844 124.496094 62.214844 124.5 C 96.484375 124.503906 124.347656 96.632812 124.386719 62.3125 C 124.425781 28.023438 96.417969 0 62.105469 0 Z M 112.226562 55.675781 C 112.203125 55.566406 112.191406 55.453125 112.171875 55.34375 C 111.996094 54.484375 111.238281 53.226562 111.757812 52.863281 C 112.503906 52.332031 113.527344 53.308594 114.4375 53.617188 C 115.066406 53.832031 115.621094 54.246094 116.238281 54.5 C 117.132812 54.863281 117.695312 55.367188 117.265625 56.34375 C 117.09375 60.671875 116.648438 64.894531 115.699219 69.050781 C 115.613281 69.429688 115.421875 69.800781 115.410156 70.179688 C 115.382812 70.875 114.859375 71.082031 114.40625 71.070312 C 113.71875 71.050781 113.980469 70.382812 113.980469 70.011719 C 113.960938 65.160156 113.242188 60.402344 112.226562 55.675781 Z M 33.253906 105.65625 C 33.324219 105.507812 33.390625 105.359375 33.460938 105.210938 C 36.191406 105.59375 38.921875 105.976562 42.097656 106.425781 C 40.003906 107.09375 38.347656 107.882812 36.617188 108.105469 C 34.902344 108.324219 34.386719 106.488281 33.253906 105.65625 Z M 35.578125 111.566406 C 36.558594 113.117188 37.628906 114.613281 38.886719 116.472656 C 36.285156 115.460938 34.222656 114.359375 32.160156 113.253906 C 31.363281 112.828125 31.457031 112.363281 31.972656 111.8125 C 32.203125 111.566406 32.433594 111.316406 32.6875 111.101562 C 34.351562 109.675781 34.40625 109.710938 35.578125 111.566406 Z M 33.699219 104.460938 C 32.988281 104.328125 32.671875 103.949219 32.445312 103.3125 C 30.625 98.214844 29.507812 92.960938 28.917969 87.59375 C 28.730469 85.863281 28.679688 84.117188 28.503906 82.382812 C 28.40625 81.445312 28.621094 80.964844 29.667969 80.8125 C 32.105469 80.460938 34.542969 80.0625 36.941406 79.519531 C 38.1875 79.234375 38.496094 79.84375 38.703125 80.78125 C 39.523438 84.484375 40.628906 88.105469 41.855469 91.6875 C 43.253906 95.761719 44.84375 99.757812 46.796875 103.605469 C 47.75 105.480469 47.722656 105.496094 45.691406 105.875 C 45.417969 105.925781 45.140625 105.972656 44.925781 106.011719 C 41.132812 105.542969 37.394531 105.164062 33.699219 104.460938 Z M 10.328125 54.550781 C 10.4375 57.527344 10.554688 60.503906 11.109375 63.441406 C 11.566406 65.863281 12.050781 68.28125 12.503906 70.707031 C 12.570312 71.070312 12.988281 71.46875 12.617188 71.796875 C 12.285156 72.089844 11.902344 71.800781 11.546875 71.636719 C 10.429688 71.128906 9.304688 70.628906 8.164062 70.175781 C 7.175781 69.785156 6.761719 69.117188 7.019531 68.066406 C 7.304688 63.667969 7.769531 59.285156 8.734375 54.96875 C 8.78125 54.753906 8.925781 54.558594 8.976562 54.34375 C 9.101562 53.835938 9.402344 53.507812 9.921875 53.585938 C 10.472656 53.667969 10.3125 54.195312 10.328125 54.550781 Z M 11.027344 49.394531 C 10.902344 46.09375 12.726562 43.136719 14.078125 40.03125 C 14.328125 39.457031 14.679688 39.371094 15.277344 39.660156 C 20.238281 42.089844 25.519531 43.515625 30.902344 44.632812 C 31.3125 44.71875 32.191406 44.480469 32.0625 45.445312 C 31.96875 46.175781 31.894531 46.796875 30.886719 46.976562 C 26.007812 47.855469 21.121094 48.734375 16.390625 50.261719 C 15.117188 50.671875 13.789062 50.972656 12.59375 51.546875 C 11.074219 52.277344 10.886719 51.613281 11.023438 50.34375 C 11.046875 50.121094 11.027344 49.894531 11.027344 49.394531 Z M 90.980469 19.410156 C 88.214844 19.007812 85.535156 18.617188 82.855469 18.226562 C 82.859375 18.136719 82.863281 18.042969 82.867188 17.953125 C 84.347656 17.476562 85.820312 16.988281 87.304688 16.53125 C 88.511719 16.160156 90.027344 17.324219 90.980469 19.410156 Z M 88.652344 12.871094 C 87.707031 11.382812 86.683594 9.945312 85.492188 8.1875 C 88.132812 9.121094 90.273438 10.289062 92.398438 11.492188 C 92.914062 11.789062 92.863281 12.195312 92.480469 12.597656 C 92.289062 12.800781 92.113281 13.023438 91.910156 13.21875 C 90.148438 14.929688 89.933594 14.886719 88.652344 12.871094 Z M 90.484375 20.09375 C 91.285156 20.226562 91.613281 20.582031 91.871094 21.289062 C 93.769531 26.535156 94.871094 31.953125 95.453125 37.484375 C 95.625 39.101562 95.671875 40.734375 95.839844 42.351562 C 95.925781 43.179688 95.632812 43.617188 94.828125 43.757812 C 92.183594 44.226562 89.53125 44.671875 86.898438 45.1875 C 85.808594 45.402344 85.824219 44.546875 85.691406 44 C 84.800781 40.199219 83.691406 36.46875 82.421875 32.78125 C 81.027344 28.71875 79.429688 24.734375 77.480469 20.898438 C 76.507812 18.984375 76.570312 18.902344 78.644531 18.769531 C 79.148438 18.738281 79.652344 18.722656 80.132812 18.703125 C 83.621094 19.023438 87.058594 19.507812 90.484375 20.09375 Z M 104.710938 41.003906 C 102.519531 41.683594 100.316406 42.332031 98.125 42.996094 C 96.785156 43.40625 96.558594 42.882812 96.503906 41.796875 C 96.257812 36.792969 95.546875 31.855469 94.332031 27 C 93.832031 25.003906 93.199219 23.042969 92.628906 21.066406 C 94.972656 22.777344 96.683594 24.988281 98.363281 27.214844 C 101.144531 30.902344 103.46875 34.867188 105.601562 38.960938 C 106.238281 40.1875 105.980469 40.613281 104.710938 41.003906 Z M 106.855469 41.707031 C 108.105469 44.679688 109.351562 47.652344 110.234375 51.101562 C 105.8125 49.734375 101.703125 48.554688 97.46875 47.910156 C 97.101562 47.851562 96.882812 47.667969 96.75 47.3125 C 96.066406 45.433594 96.800781 43.992188 98.761719 43.511719 C 101.046875 42.957031 103.28125 42.253906 105.480469 41.429688 C 105.980469 41.242188 106.515625 40.894531 106.855469 41.707031 Z M 95.925781 52.597656 C 95.496094 60.464844 94.304688 68.199219 92.402344 75.835938 C 92.09375 77.0625 91.203125 77.296875 90.285156 77.234375 C 89.28125 77.167969 89.660156 76.183594 89.660156 75.605469 C 89.679688 66.449219 88.59375 57.425781 86.648438 48.492188 C 86.445312 47.550781 86.503906 46.890625 87.84375 47.128906 C 90.257812 47.5625 92.695312 47.851562 95.125 48.1875 C 95.875 48.289062 95.957031 48.769531 95.9375 49.398438 C 95.902344 50.464844 95.925781 51.53125 95.925781 52.597656 Z M 90.621094 79.402344 C 90.25 79.28125 89.589844 79.5 89.699219 78.769531 C 89.820312 77.980469 90.492188 77.9375 91.113281 77.910156 C 91.496094 77.890625 91.777344 78.011719 91.667969 78.515625 C 91.464844 78.953125 91.480469 79.683594 90.621094 79.402344 Z M 90.964844 80.90625 C 90.632812 81.835938 90.308594 82.769531 89.984375 83.703125 C 89.871094 83.695312 89.757812 83.6875 89.644531 83.679688 C 89.644531 82.679688 89.644531 81.679688 89.644531 80.679688 C 89.644531 80.15625 89.882812 80 90.386719 80.144531 C 90.789062 80.261719 91.167969 80.339844 90.964844 80.90625 Z M 67.339844 77.265625 C 66.148438 77.300781 66.332031 76.449219 66.375 75.753906 C 66.664062 71.261719 66.722656 66.769531 67.03125 62.273438 C 67.03125 57.777344 67.058594 53.28125 67.011719 48.785156 C 67 47.789062 67.265625 47.480469 68.3125 47.410156 C 72.566406 47.121094 76.839844 47.148438 81.066406 46.507812 C 81.285156 46.472656 81.515625 46.496094 81.738281 46.492188 C 85.214844 46.441406 85.449219 46.570312 86.160156 49.925781 C 87.285156 55.230469 87.933594 60.601562 88.441406 66.003906 C 88.753906 69.308594 88.519531 72.632812 89.035156 75.914062 C 89.234375 77.207031 88.609375 77.488281 87.464844 77.671875 C 80.726562 78.761719 74.054688 77.070312 67.339844 77.265625 Z M 76.234375 78.328125 C 73.277344 78.757812 70.332031 79.136719 67.359375 78.988281 C 66.957031 78.96875 66.367188 79.152344 66.390625 78.421875 C 66.40625 77.84375 66.882812 77.890625 67.257812 77.90625 C 70.25 78.039062 73.242188 78.1875 76.234375 78.328125 Z M 65.777344 75.871094 C 65.796875 76.914062 65.394531 77.246094 64.375 77.191406 C 62.75 77.105469 61.113281 77.070312 59.492188 77.160156 C 58.324219 77.226562 57.925781 76.890625 57.945312 75.675781 C 58.007812 71.175781 58.625 53.183594 58.582031 48.683594 C 58.574219 47.714844 58.890625 47.410156 59.839844 47.453125 C 61.410156 47.523438 62.992188 47.570312 64.554688 47.457031 C 65.945312 47.355469 66.414062 47.773438 66.351562 49.21875 C 66.027344 56.410156 66.273438 63.617188 65.851562 70.8125 C 65.75 72.496094 65.746094 74.1875 65.777344 75.871094 Z M 55.820312 77.285156 C 50.886719 77.441406 45.953125 77.710938 41.023438 78 C 39.296875 78.097656 38.660156 77.378906 38.304688 75.683594 C 36.542969 67.269531 35.777344 58.753906 35.34375 50.191406 C 35.183594 46.996094 35.238281 47.203125 38.378906 46.765625 C 41.605469 46.3125 44.757812 46.699219 47.9375 46.867188 C 50.601562 47.007812 53.824219 47.273438 56.582031 47.40625 C 57.019531 47.429688 57.363281 47.789062 57.363281 48.226562 L 57.363281 75.570312 C 57.378906 76.753906 57.140625 77.242188 55.820312 77.285156 Z M 56.371094 78.988281 C 53.550781 78.867188 50.730469 78.722656 47.910156 78.589844 C 47.910156 78.488281 47.910156 78.390625 47.910156 78.289062 C 50.742188 78.160156 53.570312 78.023438 56.402344 77.90625 C 56.757812 77.894531 57.246094 77.792969 57.292969 78.378906 C 57.347656 79.09375 56.785156 79.003906 56.371094 78.988281 Z M 28.292969 78.335938 C 28.199219 77.777344 28.0625 77.027344 29.128906 77.195312 C 30.996094 77.488281 32.867188 77.734375 34.734375 78.003906 C 35.550781 78.121094 36.371094 78.246094 37.1875 78.367188 C 37.203125 78.46875 37.222656 78.570312 37.242188 78.671875 C 34.476562 79.199219 31.730469 79.871094 28.945312 80.1875 C 27.859375 80.308594 28.40625 79 28.292969 78.335938 Z M 36.226562 77.449219 C 34.003906 76.941406 31.722656 76.648438 29.453125 76.398438 C 28.34375 76.273438 28.230469 75.746094 28.34375 74.84375 C 28.46875 73.839844 28.5 72.824219 28.574219 71.816406 C 28.820312 63.992188 30.042969 56.316406 31.929688 48.726562 C 32.226562 47.527344 32.945312 47.386719 33.871094 47.445312 C 34.9375 47.511719 34.570312 48.445312 34.628906 49 C 34.933594 51.902344 34.757812 54.820312 35.003906 57.742188 C 35.519531 63.882812 36.339844 69.960938 37.613281 75.980469 C 37.90625 77.359375 37.824219 77.8125 36.226562 77.449219 Z M 34.074219 44.511719 C 33.429688 44.4375 33.191406 44.113281 33.417969 43.484375 C 33.746094 42.570312 34.074219 41.652344 34.398438 40.738281 C 34.511719 40.765625 34.621094 40.796875 34.730469 40.824219 C 34.730469 41.765625 34.738281 42.707031 34.726562 43.648438 C 34.722656 44.085938 34.785156 44.597656 34.074219 44.511719 Z M 33.652344 45.132812 C 34.136719 45.183594 34.546875 45.269531 34.527344 45.882812 C 34.5 46.648438 33.941406 46.578125 33.441406 46.578125 C 33.0625 46.578125 32.570312 46.671875 32.679688 46.03125 C 32.765625 45.511719 32.96875 45.066406 33.652344 45.132812 Z M 56.980469 46.617188 C 53.964844 46.683594 50.96875 46.382812 47.972656 45.980469 C 51 45.957031 53.992188 45.601562 57 45.488281 C 57.410156 45.472656 57.988281 45.347656 57.976562 46.058594 C 57.960938 46.753906 57.394531 46.609375 56.980469 46.617188 Z M 64.878906 78.996094 C 63.8125 79 62.75 78.996094 61.6875 78.996094 C 61.6875 78.992188 61.6875 78.992188 61.6875 78.988281 C 60.679688 78.988281 59.671875 78.996094 58.664062 78.984375 C 58.316406 78.980469 57.984375 78.902344 57.988281 78.441406 C 57.988281 77.984375 58.316406 77.894531 58.667969 77.894531 C 60.738281 77.886719 62.808594 77.890625 64.878906 77.894531 C 65.226562 77.898438 65.570312 77.96875 65.554688 78.429688 C 65.542969 78.851562 65.253906 78.992188 64.878906 78.996094 Z M 65.46875 81.074219 C 65.164062 86.398438 64.914062 91.726562 64.605469 97.050781 C 64.480469 99.238281 64.226562 101.414062 64.113281 103.601562 C 64.070312 104.378906 63.863281 104.734375 63.046875 104.667969 C 62.433594 104.617188 61.8125 104.660156 61.191406 104.660156 C 58.355469 104.660156 58.320312 104.660156 58.285156 101.742188 C 58.246094 98.484375 57.976562 84.886719 57.925781 81.347656 C 57.910156 80.308594 58.125 79.8125 59.300781 79.878906 C 60.976562 79.976562 62.667969 79.953125 64.351562 79.898438 C 65.253906 79.867188 65.519531 80.207031 65.46875 81.074219 Z M 59.472656 45.488281 C 60.539062 45.484375 61.601562 45.484375 62.664062 45.484375 C 62.664062 45.484375 62.664062 45.480469 62.664062 45.480469 C 63.5625 45.480469 64.457031 45.464844 65.351562 45.488281 C 65.769531 45.496094 66.320312 45.371094 66.304688 46.082031 C 66.292969 46.617188 65.882812 46.675781 65.480469 46.707031 C 63.464844 46.855469 61.453125 46.816406 59.441406 46.667969 C 59.105469 46.640625 58.75 46.597656 58.722656 46.144531 C 58.6875 45.605469 59.042969 45.492188 59.472656 45.488281 Z M 67.082031 45.988281 C 67.140625 45.398438 67.621094 45.476562 67.976562 45.527344 C 70.523438 45.890625 73.09375 45.785156 75.632812 45.996094 C 73.097656 46.761719 70.523438 46.511719 67.972656 46.640625 C 67.53125 46.660156 67.015625 46.679688 67.082031 45.988281 Z M 95.925781 47.234375 C 95.835938 47.808594 95.304688 47.394531 94.953125 47.34375 C 92.152344 46.925781 89.355469 46.519531 86.144531 46.046875 C 89.328125 45.464844 92.109375 44.949219 94.894531 44.457031 C 95.25 44.394531 95.800781 44.195312 95.878906 44.742188 C 96 45.5625 96.054688 46.425781 95.925781 47.234375 Z M 84.960938 44.152344 C 85.195312 45.074219 84.863281 45.554688 83.890625 45.546875 C 83.214844 45.542969 82.542969 45.546875 81.867188 45.546875 C 77.277344 45.339844 72.699219 44.761719 68.09375 44.898438 C 67.289062 44.921875 67.011719 44.625 67.027344 43.828125 C 67.152344 36.234375 66.8125 28.644531 66.640625 21.058594 C 66.621094 20.082031 66.964844 19.835938 67.890625 19.789062 C 70.1875 19.671875 72.480469 19.476562 74.757812 19.207031 C 75.523438 19.117188 75.871094 19.355469 76.1875 19.976562 C 80.109375 27.671875 82.824219 35.804688 84.960938 44.152344 Z M 67.472656 19.203125 C 66.980469 19.273438 66.566406 19.167969 66.542969 18.539062 C 66.519531 17.871094 66.96875 17.832031 67.441406 17.855469 C 69.824219 17.972656 72.207031 18.101562 74.589844 18.230469 C 72.273438 19.089844 69.835938 18.855469 67.472656 19.203125 Z M 73.859375 17.519531 C 71.5625 17.421875 69.265625 17.296875 66.972656 17.179688 C 66.5625 17.160156 66.398438 16.917969 66.371094 16.527344 C 66.140625 13.074219 65.90625 9.621094 65.644531 5.800781 C 69.429688 9.082031 72.042969 12.75 74.304688 16.707031 C 74.664062 17.335938 74.460938 17.546875 73.859375 17.519531 Z M 65.0625 19.222656 C 64.335938 19.21875 63.609375 19.21875 62.882812 19.21875 C 62.882812 19.222656 62.882812 19.226562 62.882812 19.230469 C 62.328125 19.230469 61.769531 19.25 61.210938 19.226562 C 60.84375 19.210938 60.359375 19.277344 60.429688 18.65625 C 60.476562 18.265625 60.53125 17.820312 61.054688 17.8125 C 62.449219 17.800781 63.84375 17.8125 65.238281 17.835938 C 65.664062 17.84375 65.746094 18.167969 65.769531 18.535156 C 65.800781 19.054688 65.519531 19.222656 65.0625 19.222656 Z M 61.664062 19.949219 C 61.828125 19.972656 62 19.964844 62.167969 19.964844 C 65.957031 20 65.992188 19.996094 66.066406 23.914062 C 66.121094 26.894531 66.328125 39.941406 66.390625 43.484375 C 66.414062 44.683594 65.90625 44.882812 64.871094 44.820312 C 63.25 44.722656 61.617188 44.695312 59.992188 44.742188 C 59.074219 44.769531 58.820312 44.433594 58.863281 43.566406 C 59.050781 39.863281 59.140625 36.152344 59.367188 32.449219 C 59.597656 28.691406 59.988281 24.945312 60.21875 21.1875 C 60.285156 20.117188 60.691406 19.792969 61.664062 19.949219 Z M 58.53125 19.210938 C 55.539062 19.015625 52.546875 18.785156 49.554688 18.5625 C 49.570312 18.433594 49.589844 18.308594 49.609375 18.179688 C 52.566406 18.046875 55.519531 17.902344 58.476562 17.804688 C 58.953125 17.789062 59.675781 17.511719 59.699219 18.46875 C 59.71875 19.382812 59.054688 19.246094 58.53125 19.210938 Z M 58.363281 19.847656 C 59.136719 19.84375 59.585938 19.949219 59.515625 20.972656 C 58.996094 28.484375 58.539062 36 58.09375 43.515625 C 58.042969 44.351562 57.921875 44.890625 56.890625 44.875 C 52.058594 44.785156 47.246094 45.140625 43.238281 45.539062 C 40.347656 45.632812 38.328125 45.058594 36.261719 44.882812 C 35.0625 44.78125 35.515625 43.945312 35.460938 43.257812 C 34.863281 35.359375 39.21875 29.179688 42.480469 22.585938 C 43.976562 19.570312 45.726562 18.089844 49.328125 19.066406 C 52.230469 19.851562 55.328125 19.851562 58.363281 19.847656 Z M 36.511719 32.652344 C 36.128906 30.742188 36.769531 28.90625 37.074219 27.078125 C 37.449219 24.835938 38.167969 22.65625 38.65625 20.429688 C 38.859375 19.515625 39.25 19.089844 40.222656 19.101562 C 41.386719 19.113281 42.523438 18.589844 43.980469 18.925781 C 41.113281 23.441406 38.726562 27.976562 36.511719 32.652344 Z M 39.371094 15.800781 C 39.125 16.347656 38.644531 16.25 38.21875 16.082031 C 37.195312 15.667969 36.089844 15.429688 35.117188 14.65625 C 37.085938 13.117188 39.078125 11.730469 41.714844 10.417969 C 40.804688 12.511719 40.101562 14.160156 39.371094 15.800781 Z M 35.128906 15.566406 C 35.933594 15.953125 36.78125 16.246094 37.597656 16.609375 C 38.066406 16.816406 38.84375 16.746094 38.738281 17.570312 C 38.640625 18.339844 38.085938 18.664062 37.347656 18.785156 C 35.140625 19.140625 32.941406 19.542969 30.730469 19.886719 C 30.140625 19.976562 29.601562 20.445312 28.667969 19.996094 C 30.382812 18.503906 31.972656 17.117188 33.574219 15.738281 C 34.039062 15.339844 34.542969 15.28125 35.128906 15.566406 Z M 37.554688 19.484375 C 37.703125 19.46875 37.863281 19.574219 38.070312 19.640625 C 36.484375 25.082031 35.636719 30.625 34.976562 36.226562 C 34.683594 38.730469 33.472656 41.128906 32.675781 43.574219 C 32.496094 44.121094 32.148438 44.15625 31.621094 44.046875 C 26.234375 42.945312 20.925781 41.613281 15.933594 39.222656 C 15.019531 38.785156 14.855469 38.449219 15.363281 37.515625 C 18.460938 31.824219 22.292969 26.675781 26.710938 21.953125 C 26.972656 21.671875 27.300781 21.355469 27.648438 21.273438 C 30.925781 20.535156 34.210938 19.835938 37.554688 19.484375 Z M 15.609375 35.421875 C 15.277344 36.003906 14.976562 36.601562 14.617188 37.167969 C 14.386719 37.53125 14.398438 38.253906 13.613281 37.917969 C 12.964844 37.636719 12.867188 37.160156 13.050781 36.546875 C 13.4375 35.261719 13.800781 33.96875 14.214844 32.695312 C 14.507812 31.789062 14.964844 30.933594 15.191406 30.015625 C 16.5 24.699219 20.230469 22.476562 25.558594 22.023438 C 21.628906 26.164062 18.371094 30.609375 15.609375 35.421875 Z M 13.132812 38.503906 C 13.464844 38.644531 13.84375 38.78125 13.535156 39.328125 C 13.085938 40.109375 12.859375 41.019531 12.179688 41.769531 C 11.792969 40.71875 12.398438 39.867188 12.449219 38.960938 C 12.46875 38.605469 12.722656 38.328125 13.132812 38.503906 Z M 11.015625 54.296875 C 11.011719 53.621094 10.933594 52.972656 11.777344 52.648438 C 17.828125 50.316406 24.128906 48.96875 30.515625 47.851562 C 31.296875 47.757812 31.445312 48.117188 31.246094 48.847656 C 29.632812 54.695312 28.710938 60.671875 28.117188 66.695312 C 27.855469 69.375 27.773438 72.074219 27.679688 74.769531 C 27.648438 75.683594 27.476562 76.105469 26.425781 75.882812 C 22.5625 75.054688 18.722656 74.128906 14.953125 72.929688 C 14.136719 72.667969 13.617188 72.289062 13.402344 71.40625 C 12.011719 65.785156 11.0625 60.105469 11.015625 54.296875 Z M 26.644531 76.648438 C 27.960938 76.859375 27.675781 77.902344 27.628906 78.738281 C 27.585938 79.515625 28.085938 80.457031 26.644531 80.804688 C 23.988281 81.441406 21.390625 82.328125 18.789062 83.179688 C 18.160156 83.382812 17.734375 83.484375 17.429688 82.78125 C 16.152344 79.820312 14.960938 76.832031 14.070312 73.5 C 18.34375 74.789062 22.429688 75.980469 26.644531 76.648438 Z M 21.261719 83.011719 C 22.859375 82.507812 24.488281 82.113281 26.085938 81.609375 C 27.195312 81.257812 27.703125 81.3125 27.789062 82.753906 C 28.148438 88.6875 29.007812 94.554688 30.714844 100.265625 C 31.0625 101.429688 31.4375 102.582031 31.800781 103.742188 C 26.652344 98.859375 22.703125 93.25 19.523438 87.09375 C 17.964844 84.074219 17.996094 84.039062 21.261719 83.011719 Z M 39.386719 80.554688 C 39.148438 79.628906 39.25 79.269531 40.335938 79.054688 C 42.609375 78.601562 44.828125 79.132812 47.027344 79.332031 C 50.046875 79.605469 53.078125 79.429688 56.089844 79.8125 C 57.152344 79.945312 57.367188 80.269531 57.355469 81.230469 C 57.308594 84.9375 57.644531 99.652344 57.695312 103.300781 C 57.710938 104.257812 57.558594 104.691406 56.457031 104.738281 C 54.332031 104.828125 52.210938 105.074219 50.101562 105.332031 C 49.003906 105.46875 48.398438 105.128906 47.882812 104.105469 C 44.117188 96.585938 41.480469 88.671875 39.386719 80.554688 Z M 56.929688 105.445312 C 57.398438 105.417969 57.691406 105.546875 57.722656 106.058594 C 57.757812 106.628906 57.382812 106.703125 56.957031 106.683594 C 54.507812 106.574219 52.054688 106.453125 49.601562 106.335938 C 52.023438 105.632812 54.480469 105.597656 56.929688 105.445312 Z M 56.996094 107.359375 C 57.582031 107.359375 57.9375 107.617188 57.980469 108.25 C 58.203125 111.546875 58.4375 114.84375 58.65625 118.140625 C 58.660156 118.21875 58.550781 118.304688 58.367188 118.570312 C 54.722656 115.332031 51.984375 111.480469 49.769531 107.355469 C 52.21875 107.355469 54.605469 107.355469 56.996094 107.359375 Z M 59.230469 105.335938 C 60.5625 105.304688 61.894531 105.296875 63.226562 105.292969 C 63.617188 105.289062 63.859375 105.472656 63.839844 105.894531 C 63.820312 106.300781 63.753906 106.699219 63.230469 106.714844 C 62.5625 106.730469 61.898438 106.71875 61.230469 106.71875 C 61.230469 106.710938 61.230469 106.707031 61.230469 106.703125 C 60.621094 106.703125 60.007812 106.707031 59.398438 106.699219 C 58.996094 106.695312 58.605469 106.671875 58.589844 106.117188 C 58.574219 105.660156 58.746094 105.34375 59.230469 105.335938 Z M 64.324219 108.472656 C 64.382812 107.742188 64.683594 107.507812 65.359375 107.480469 C 69.601562 107.3125 73.847656 107.125 78.550781 106.925781 C 74.292969 112.6875 69.761719 117.472656 63.6875 120.59375 C 63.410156 120.738281 63.082031 121.046875 62.804688 120.730469 C 62.671875 120.578125 62.742188 120.203125 62.792969 119.941406 C 63.53125 116.148438 64.007812 112.320312 64.324219 108.472656 Z M 64.660156 106.054688 C 64.691406 105.308594 65.207031 105.3125 65.726562 105.351562 C 67.902344 105.515625 70.078125 105.695312 72.25 105.863281 C 72.914062 105.914062 73.574219 105.953125 74.238281 106 C 71.367188 106.78125 68.460938 106.683594 65.566406 106.707031 C 65.121094 106.710938 64.628906 106.753906 64.660156 106.054688 Z M 77.972656 105.878906 C 74.109375 105.15625 70.1875 104.816406 66.265625 104.710938 C 64.8125 104.671875 64.742188 104.222656 64.84375 102.953125 C 65.3125 96.90625 65.644531 90.84375 66.019531 84.789062 C 66.058594 84.171875 66.035156 83.554688 66.0625 82.9375 C 66.203125 80 66.214844 80.09375 69.054688 79.839844 C 73.296875 79.457031 77.558594 79.464844 81.804688 79.023438 C 83.867188 78.8125 86.015625 79.460938 88.125 79.746094 C 88.773438 79.832031 88.839844 80.296875 88.808594 80.871094 C 88.761719 81.824219 88.796875 82.78125 88.796875 83.738281 C 89.09375 86.351562 88.285156 88.703125 87.257812 91.058594 C 85.140625 95.898438 82.777344 100.597656 79.882812 105.023438 C 79.394531 105.765625 78.9375 106.0625 77.972656 105.878906 Z M 87.855469 91.832031 C 88.203125 93.753906 87.558594 95.59375 87.265625 97.433594 C 86.925781 99.570312 86.183594 101.636719 85.769531 103.765625 C 85.535156 104.960938 84.980469 105.492188 83.800781 105.554688 C 82.6875 105.617188 81.578125 105.773438 80.160156 105.917969 C 83.167969 101.269531 85.59375 96.617188 87.855469 91.832031 Z M 86.445312 108.617188 C 87.332031 109.042969 88.808594 109.09375 88.96875 109.921875 C 89.105469 110.636719 87.675781 111.121094 86.910156 111.644531 C 85.597656 112.546875 84.210938 113.34375 82.859375 114.179688 C 82.796875 114.089844 82.730469 113.996094 82.667969 113.90625 C 83.347656 112.378906 84.097656 110.875 84.6875 109.3125 C 85.066406 108.316406 85.574219 108.199219 86.445312 108.617188 Z M 86.6875 107.972656 C 86.25 107.761719 85.464844 107.859375 85.605469 106.984375 C 85.730469 106.195312 86.21875 105.964844 86.988281 105.84375 C 89.851562 105.402344 92.703125 104.859375 95.558594 104.359375 C 95.621094 104.4375 95.683594 104.519531 95.75 104.601562 C 94.007812 106.082031 92.261719 107.554688 90.53125 109.046875 C 90.109375 109.414062 89.746094 109.273438 89.3125 109.074219 C 88.449219 108.683594 87.542969 108.378906 86.6875 107.972656 Z M 86.222656 105.152344 C 87.859375 99.371094 88.726562 93.71875 89.402344 88.007812 C 89.679688 85.671875 90.882812 83.449219 91.609375 81.160156 C 91.867188 80.347656 92.441406 80.5 92.957031 80.605469 C 98.292969 81.664062 103.523438 83.050781 108.472656 85.378906 C 109.363281 85.796875 109.433594 86.242188 108.980469 87.066406 C 105.878906 92.753906 102.097656 97.9375 97.632812 102.621094 C 97.324219 102.941406 97.03125 103.234375 96.542969 103.34375 C 93.222656 104.089844 89.894531 104.792969 86.222656 105.152344 Z M 106.6875 92.40625 C 107.71875 90.742188 108.6875 89.039062 109.695312 87.359375 C 109.933594 86.957031 110.054688 86.332031 110.777344 86.703125 C 111.328125 86.984375 111.441406 87.441406 111.296875 87.980469 C 110.1875 92.105469 108.683594 96.078125 106.613281 99.828125 C 106.410156 100.195312 106.109375 100.433594 105.738281 100.574219 C 103.597656 101.363281 101.457031 102.144531 99.113281 102.484375 C 101.8125 99.21875 104.472656 95.976562 106.6875 92.40625 Z M 111.195312 86.101562 C 110.820312 85.941406 110.527344 85.738281 110.800781 85.222656 C 111.234375 84.414062 111.609375 83.578125 112.191406 82.367188 C 112.453125 83.8125 111.976562 84.6875 111.871094 85.613281 C 111.839844 85.90625 111.652344 86.296875 111.195312 86.101562 Z M 110.207031 84.660156 C 109.914062 85.269531 109.511719 85.15625 108.984375 84.898438 C 104.023438 82.453125 98.734375 81.042969 93.339844 79.972656 C 92.855469 79.875 92.109375 79.929688 92.285156 79.03125 C 92.402344 78.441406 92.355469 77.707031 93.164062 77.589844 C 100.011719 76.597656 106.699219 74.976562 113.207031 72.574219 C 113.890625 77.101562 112.042969 80.878906 110.207031 84.660156 Z M 111.171875 72.492188 C 105.785156 74.351562 100.246094 75.570312 94.664062 76.609375 C 92.875 76.945312 92.84375 76.855469 93.289062 75.089844 C 95.351562 66.894531 96.382812 58.558594 96.652344 50.125 C 96.6875 48.960938 96.785156 48.503906 98.191406 48.796875 C 102.011719 49.585938 105.78125 50.53125 109.496094 51.71875 C 110.300781 51.976562 110.714844 52.398438 110.914062 53.164062 C 112.285156 58.449219 113.054688 63.824219 113.363281 69.621094 C 113.890625 71.207031 112.820312 71.925781 111.171875 72.492188 Z M 117.988281 55.757812 C 121.324219 56.984375 123.53125 59.949219 123.472656 62.898438 C 123.441406 64.433594 122.578125 65.496094 121.605469 66.519531 C 120.136719 68.074219 118.371094 69.195312 116.265625 70.222656 C 117.234375 65.316406 118.144531 60.621094 117.988281 55.757812 Z M 115.550781 34.292969 C 119.871094 41.773438 122.453125 49.667969 123.035156 58.226562 C 121.566406 56.976562 120.148438 55.804688 118.550781 54.882812 C 117.914062 54.515625 117.972656 53.996094 117.980469 53.445312 C 118.078125 47.566406 116.976562 41.878906 115.269531 36.285156 C 115.015625 35.453125 115.027344 35.449219 115.550781 34.292969 Z M 117.058594 49.808594 C 117.121094 50.816406 117.195312 51.824219 117.25 52.621094 C 117.515625 53.957031 117.097656 54.15625 116.167969 53.601562 C 116.117188 53.570312 116.070312 53.535156 116.019531 53.519531 C 112.335938 52.535156 110.070312 50.335938 109.449219 46.417969 C 109.210938 44.910156 108.414062 43.464844 107.734375 42.058594 C 107.277344 41.101562 107.324219 40.617188 108.386719 40.171875 C 110.25 39.398438 111.972656 38.335938 113.472656 36.96875 C 114.207031 36.292969 114.457031 36.347656 114.757812 37.347656 C 115.972656 41.421875 116.792969 45.5625 117.058594 49.808594 Z M 114.742188 31.550781 C 113.984375 30.453125 113.226562 29.355469 112.472656 28.253906 C 113.867188 28.914062 114.613281 30.023438 114.742188 31.550781 Z M 108.804688 22.242188 C 109.777344 23.460938 110.75 24.683594 111.722656 25.902344 C 109.820312 25.417969 109.632812 23.578125 108.328125 22.621094 C 108.488281 22.496094 108.648438 22.367188 108.804688 22.242188 Z M 110.683594 27.550781 C 111.78125 29.75 112.839844 31.960938 113.730469 34.257812 C 114.050781 35.078125 113.960938 35.601562 113.34375 36.175781 C 111.683594 37.730469 109.722656 38.792969 107.699219 39.777344 C 106.707031 40.257812 106.570312 39.4375 106.296875 38.882812 C 103.992188 34.179688 101.253906 29.753906 98.035156 25.628906 C 96.835938 24.089844 95.558594 22.609375 94.054688 20.78125 C 99.199219 21.882812 103.8125 23.160156 108.195312 25.191406 C 109.3125 25.710938 110.128906 26.433594 110.683594 27.550781 Z M 106.714844 22.589844 C 107.132812 23.019531 107.515625 23.476562 107.910156 23.921875 C 103.734375 22.484375 99.597656 21.132812 95.332031 20.371094 C 92.773438 19.914062 91.4375 18.503906 90.511719 16.300781 C 90.207031 15.578125 90.257812 15.179688 90.949219 14.8125 C 91.390625 14.578125 91.9375 14.324219 92.152344 13.925781 C 93.433594 11.585938 94.75 12.832031 96.148438 13.765625 C 99.984375 16.335938 103.511719 19.265625 106.714844 22.589844 Z M 93.785156 9.84375 C 96.683594 10.933594 103.488281 16.816406 105.222656 19.773438 C 104.664062 19.761719 104.4375 19.359375 104.148438 19.101562 C 101.261719 16.523438 98.214844 14.15625 94.890625 12.171875 C 93.929688 11.59375 93.554688 10.910156 93.785156 9.84375 Z M 92.988281 10.699219 C 89.429688 8.542969 85.054688 7.933594 82.035156 4.785156 C 86.089844 6.019531 90.539062 6.515625 92.988281 10.699219 Z M 81.144531 5.507812 C 78.371094 4.871094 75.675781 4.085938 72.945312 3.40625 C 75.789062 3.699219 78.8125 3.261719 81.144531 5.507812 Z M 83.128906 7.28125 C 85.324219 8.277344 86.445312 10.71875 87.75 12.746094 C 88.207031 13.460938 89.292969 14.539062 88.769531 14.976562 C 87.878906 15.714844 87.171875 14.375 86.488281 13.84375 C 81.269531 9.769531 75.625 6.488281 69.339844 4.355469 C 68.929688 4.214844 68.53125 4.039062 68.125 3.878906 C 73.34375 4.203125 78.425781 5.144531 83.128906 7.28125 Z M 87.613281 15.691406 C 83.777344 16.875 80.355469 18.363281 76.484375 17.632812 C 75.84375 17.511719 75.476562 17.207031 75.199219 16.710938 C 72.636719 12.128906 69.621094 7.917969 65.507812 4.574219 C 65.410156 4.492188 65.429688 4.269531 65.347656 3.894531 C 73.691406 6.035156 80.847656 10.078125 87.613281 15.691406 Z M 62.773438 3.765625 C 63.648438 3.90625 64.664062 4.472656 64.773438 5.71875 C 64.976562 8.054688 65.226562 10.386719 65.445312 12.722656 C 65.503906 13.335938 65.496094 13.957031 65.566406 14.566406 C 65.855469 17.210938 65.859375 17.207031 63.296875 17.167969 C 60.519531 17.125 60.519531 17.125 60.878906 14.363281 C 61.269531 11.375 61.613281 8.375 62.097656 5.402344 C 62.191406 4.84375 62.03125 3.648438 62.773438 3.765625 Z M 60.019531 16.097656 C 59.953125 17.132812 59.324219 17.210938 58.523438 17.195312 C 54.371094 17.097656 50.238281 17.472656 45.746094 17.773438 C 50.03125 11.742188 54.902344 6.773438 61.734375 3.429688 C 60.917969 7.878906 60.285156 11.964844 60.019531 16.097656 Z M 58.730469 4.019531 C 56.992188 5.335938 55.359375 6.492188 53.816406 7.753906 C 50.757812 10.265625 48.121094 13.199219 45.859375 16.433594 C 45.054688 17.578125 44.242188 17.71875 43.027344 17.410156 C 39.804688 16.585938 39.871094 16.652344 41.113281 13.558594 C 42.324219 10.539062 44.253906 8.503906 47.402344 7.371094 C 50.859375 6.128906 54.3125 4.90625 57.867188 3.980469 C 58.070312 3.925781 58.304688 3.996094 58.730469 4.019531 Z M 48.972656 4.257812 C 50.90625 4.066406 52.796875 3.492188 54.769531 3.734375 C 51.824219 4.945312 48.738281 5.671875 46.011719 7.300781 C 45.820312 7.414062 45.394531 7.390625 45.242188 7.25 C 44.992188 7.023438 45.261719 6.746094 45.4375 6.546875 C 46.394531 5.453125 47.351562 4.414062 48.972656 4.257812 Z M 45.761719 4.09375 C 41.441406 5.328125 37.226562 6.859375 33.089844 8.59375 C 36.859375 5.75 41.226562 4.671875 45.761719 4.09375 Z M 32.746094 9.785156 C 36.664062 7.875 40.6875 6.28125 45.023438 5.378906 C 44.015625 7.085938 43.085938 8.730469 41.191406 9.660156 C 39.042969 10.714844 37.0625 12.097656 35.140625 13.542969 C 34.054688 14.363281 32.847656 13.859375 31.832031 12.246094 C 31.058594 11.007812 31.570312 10.355469 32.746094 9.785156 Z M 30.5625 11.074219 C 30.9375 12.34375 31.652344 13.398438 32.738281 14.15625 C 33.269531 14.523438 33.390625 14.777344 32.816406 15.273438 C 30.824219 16.988281 28.890625 18.773438 26.90625 20.496094 C 26.117188 21.183594 25.03125 21.148438 24.085938 21.460938 C 22.410156 22.015625 20.714844 22.496094 18.625 23.128906 C 21.871094 18.019531 25.078125 13.492188 30.5625 11.074219 Z M 21.328125 17.617188 C 19.046875 20.339844 18.269531 24.527344 13.570312 25.269531 C 15.992188 22.257812 18.472656 19.75 21.328125 17.617188 Z M 11.582031 27.976562 C 12.964844 26.675781 14.609375 25.71875 16.792969 24.902344 C 14.886719 28.691406 13.484375 32.222656 12.5 35.90625 C 12.222656 36.953125 11.859375 36.695312 11.273438 36.199219 C 8.492188 33.84375 8.558594 30.824219 11.582031 27.976562 Z M 8.339844 32.871094 C 9.089844 34.878906 10.199219 36.292969 11.652344 37.441406 C 12.140625 37.828125 11.851562 38.40625 11.769531 38.871094 C 10.984375 43.375 10.222656 47.882812 8.652344 52.199219 C 8.429688 52.8125 8.222656 53.367188 7.515625 53.726562 C 5.128906 54.941406 2.871094 56.371094 0.882812 58.902344 C 1.429688 49.464844 3.757812 41.050781 8.339844 32.871094 Z M 0.964844 61.246094 C 1.644531 57.519531 4.964844 56.203125 7.972656 54.304688 C 7.523438 56.980469 7.046875 59.316406 6.753906 61.671875 C 6.46875 63.988281 6.371094 66.332031 6.167969 69 C 3.121094 67.035156 0.253906 65.160156 0.964844 61.246094 Z M 8.890625 89.808594 C 8.34375 90.058594 8.28125 89.4375 8.125 89.148438 C 4.195312 81.984375 1.761719 74.359375 1.050781 65.71875 C 2.535156 67.445312 3.898438 68.589844 5.453125 69.488281 C 6.085938 69.851562 6.230469 70.394531 6.242188 71.039062 C 6.347656 77.042969 7.316406 82.90625 9.113281 88.632812 C 9.25 89.074219 9.402344 89.578125 8.890625 89.808594 Z M 9.617188 87.3125 C 8.410156 83.300781 7.523438 79.234375 7.339844 75.046875 C 7.277344 73.59375 6.730469 72.171875 7.085938 70.59375 C 8.957031 71.378906 10.691406 72.125 12.441406 72.828125 C 13.027344 73.0625 13.308594 73.484375 13.472656 74.050781 C 14.332031 77.011719 15.390625 79.902344 16.65625 82.707031 C 17.054688 83.582031 16.910156 83.988281 16.054688 84.359375 C 14.144531 85.183594 12.355469 86.226562 10.800781 87.632812 C 10.214844 88.160156 9.925781 88.347656 9.617188 87.3125 Z M 13.964844 97.570312 C 12.589844 95.210938 11.566406 92.6875 10.550781 90.160156 C 10.269531 89.464844 10.410156 88.992188 10.894531 88.507812 C 12.5625 86.867188 14.582031 85.789062 16.667969 84.808594 C 17.703125 84.320312 17.785156 85.234375 18.046875 85.765625 C 20.519531 90.757812 23.457031 95.449219 26.945312 99.796875 C 27.917969 101.007812 28.929688 102.191406 30.261719 103.792969 C 24.71875 102.621094 19.792969 101.246094 15.167969 98.914062 C 14.5625 98.605469 14.269531 98.089844 13.964844 97.570312 Z M 16.59375 100.632812 C 19.933594 101.746094 23.234375 102.914062 26.652344 103.691406 C 27.414062 103.867188 28.167969 104.148438 28.9375 104.210938 C 31.601562 104.429688 32.949219 106.101562 33.851562 108.390625 C 34.078125 108.964844 34.136719 109.488281 33.554688 109.625 C 32.054688 109.980469 31.578125 112.746094 29.957031 111.835938 C 24.851562 108.972656 20.441406 105.160156 16.59375 100.632812 Z M 30.511719 114.910156 C 25.871094 112.164062 22.066406 108.652344 18.640625 104.5 C 19.238281 104.386719 19.429688 104.792969 19.671875 105.015625 C 22.683594 107.789062 25.90625 110.292969 29.414062 112.40625 C 30.359375 112.976562 30.707031 113.683594 30.511719 114.910156 Z M 31.242188 113.394531 C 34.867188 116.082031 39.21875 116.613281 42.394531 119.605469 C 39.015625 119.964844 31.953125 116.242188 31.242188 113.394531 Z M 42.6875 118.832031 C 45.664062 119.613281 48.269531 120.292969 50.878906 120.976562 C 48.128906 120.855469 45.246094 121.246094 42.6875 118.832031 Z M 43.699219 118.335938 C 39.28125 117.167969 37.714844 113.402344 35.542969 110.125 C 35.414062 109.933594 35.328125 109.710938 35.5 109.515625 C 35.71875 109.261719 35.996094 109.292969 36.257812 109.453125 C 36.402344 109.539062 36.535156 109.640625 36.664062 109.75 C 42.382812 114.558594 48.769531 118.195312 55.824219 120.742188 C 51.660156 120.511719 47.695312 119.398438 43.699219 118.335938 Z M 54.074219 119.167969 C 48.117188 116.996094 42.757812 113.785156 37.820312 109.824219 C 36.835938 109.035156 36.996094 108.683594 38.074219 108.390625 C 41.191406 107.535156 44.25 106.34375 47.597656 106.917969 C 48.105469 107.003906 48.59375 106.980469 48.882812 107.511719 C 51.484375 112.277344 54.746094 116.519531 58.820312 120.128906 C 58.878906 120.183594 58.855469 120.332031 58.886719 120.539062 C 57.167969 120.417969 55.628906 119.734375 54.074219 119.167969 Z M 61.507812 120.769531 C 60.734375 120.679688 59.800781 120.203125 59.652344 119.324219 C 59.023438 115.671875 58.886719 111.96875 58.605469 108.277344 C 58.554688 107.589844 58.953125 107.421875 59.550781 107.449219 C 60.109375 107.472656 60.671875 107.453125 61.230469 107.453125 C 63.675781 107.589844 63.675781 107.589844 63.449219 110.148438 C 63.171875 113.273438 62.800781 116.382812 62.140625 119.453125 C 62.035156 119.933594 62.289062 120.863281 61.507812 120.769531 Z M 62.742188 123.871094 C 62.441406 123.875 61.875 124.128906 61.925781 123.425781 C 61.964844 122.851562 62.3125 122.671875 62.84375 122.769531 C 63.4375 122.878906 64.007812 123.042969 64.65625 123.546875 C 63.945312 123.996094 63.324219 123.863281 62.742188 123.871094 Z M 78.988281 107.511719 C 79.484375 106.820312 80.023438 106.558594 80.792969 107.082031 C 80.921875 107.171875 81.109375 107.1875 81.273438 107.226562 C 84.511719 107.996094 84.445312 107.96875 83.210938 110.988281 C 82.035156 113.851562 80.316406 115.96875 77.261719 117.078125 C 73.554688 118.421875 69.917969 119.925781 65.960938 120.402344 C 71.195312 116.925781 75.378906 112.507812 78.988281 107.511719 Z M 68.605469 121.113281 C 72.199219 119.890625 75.777344 118.617188 79.289062 117.15625 C 76.820312 121.597656 72.359375 120.34375 68.605469 121.113281 Z M 79.011719 120.382812 C 83.046875 119.152344 87.019531 117.738281 90.933594 116.15625 C 87.398438 118.8125 83.292969 119.855469 79.011719 120.382812 Z M 91.703125 114.742188 C 87.636719 116.730469 83.457031 118.378906 78.894531 119.484375 C 80.386719 116.96875 82.214844 115.210938 84.648438 113.992188 C 86.28125 113.175781 87.726562 111.984375 89.253906 110.957031 C 90.300781 110.25 91.597656 110.828125 92.507812 112.375 C 93.167969 113.496094 92.875 114.167969 91.703125 114.742188 Z M 97.433594 111.371094 C 96.921875 111.714844 96.375 112.007812 95.886719 112.378906 C 94.640625 113.320312 93.625 113.753906 92.835938 111.792969 C 92.527344 111.035156 91.621094 110.523438 91.03125 109.941406 C 94.914062 105.617188 99.347656 102.320312 105.230469 101.800781 C 104.546875 104.003906 100.007812 109.636719 97.433594 111.371094 Z M 102.898438 106.980469 C 105.257812 104.265625 106.082031 100.046875 110.382812 99.351562 C 109.832031 100.808594 105.53125 105.351562 102.898438 106.980469 Z M 114.25 94.609375 C 112.777344 97.128906 110.425781 98.390625 107.855469 99.441406 C 109.464844 95.832031 110.875 92.242188 111.871094 88.5 C 112.054688 87.8125 112.285156 87.863281 112.777344 88.175781 C 115.0625 89.628906 115.609375 92.289062 114.25 94.609375 Z M 112.984375 87.4375 C 112.472656 87.03125 112.40625 86.644531 112.507812 86.003906 C 113.242188 81.320312 114.179688 76.6875 115.714844 72.1875 C 115.886719 71.675781 116.066406 71.199219 116.660156 70.917969 C 119.144531 69.734375 121.382812 68.191406 123.5 65.667969 C 122.832031 75.171875 120.542969 83.644531 115.914062 91.84375 C 115.328125 89.792969 114.3125 88.488281 112.984375 87.4375 Z M 112.984375 87.4375 " fill-opacity="1" fill-rule="nonzero"/></g><g clip-path="url(#4b0c7f0e72)"><path fill="#ffffff" d="M 62.199219 6.324219 C 47.277344 6.324219 33.238281 12.144531 22.691406 22.691406 C 12.144531 33.238281 6.324219 47.277344 6.324219 62.199219 C 6.324219 67.113281 6.953125 71.953125 8.1875 76.585938 L 8.1875 77.097656 L 8.328125 77.097656 C 10.863281 86.320312 15.753906 94.769531 22.691406 101.707031 C 33.238281 112.253906 47.277344 118.074219 62.199219 118.074219 C 77.121094 118.074219 91.160156 112.253906 101.707031 101.707031 C 112.253906 91.160156 118.074219 77.121094 118.074219 62.199219 C 118.074219 47.277344 112.253906 33.238281 101.707031 22.691406 C 91.160156 12.144531 77.121094 6.324219 62.199219 6.324219 Z M 74.304688 23.085938 C 75.84375 23.085938 77.097656 24.34375 77.097656 25.878906 C 77.097656 27.417969 75.84375 28.675781 74.304688 28.675781 C 72.769531 28.675781 71.511719 27.417969 71.511719 25.878906 C 71.511719 24.34375 72.769531 23.085938 74.304688 23.085938 Z M 98.519531 47.300781 C 94.933594 47.300781 92 50.234375 92 53.816406 C 92 57.402344 94.933594 60.335938 98.519531 60.335938 C 101.800781 60.335938 104.523438 57.914062 104.964844 54.75 L 113.8125 54.75 C 114.164062 57.195312 114.347656 59.683594 114.347656 62.199219 C 114.347656 64.085938 114.257812 65.949219 114.046875 67.785156 L 94.957031 67.785156 L 87.503906 75.238281 L 75.167969 75.238281 C 74.722656 72.070312 72 69.648438 68.71875 69.648438 C 65.132812 69.648438 62.199219 72.582031 62.199219 76.167969 C 62.199219 79.753906 65.132812 82.6875 68.71875 82.6875 C 71.300781 82.6875 73.558594 81.171875 74.609375 78.960938 L 89.042969 78.960938 L 96.492188 71.511719 L 113.511719 71.511719 C 111.765625 81.289062 107.25 90.347656 100.355469 97.726562 L 96.796875 94.164062 C 97.308594 93.234375 97.585938 92.183594 97.585938 91.066406 C 97.585938 87.484375 94.652344 84.550781 91.066406 84.550781 C 87.484375 84.550781 84.550781 87.484375 84.550781 91.066406 C 84.550781 94.652344 87.484375 97.585938 91.066406 97.585938 C 92.183594 97.585938 93.257812 97.308594 94.164062 96.796875 L 97.726562 100.355469 C 89.878906 107.691406 80.148438 112.324219 69.648438 113.8125 L 69.648438 103.941406 L 74.46875 99.125 C 77.074219 98.261719 78.960938 95.816406 78.960938 92.929688 C 78.960938 89.34375 76.027344 86.410156 72.441406 86.410156 C 68.859375 86.410156 65.925781 89.34375 65.925781 92.929688 C 65.925781 95.492188 67.414062 97.703125 69.554688 98.773438 L 65.925781 102.40625 L 65.925781 114.210938 C 64.691406 114.300781 63.457031 114.347656 62.199219 114.347656 C 50.347656 114.347656 39.105469 110.414062 29.929688 103.175781 L 36.890625 103.175781 L 42.480469 97.585938 L 47.925781 97.585938 C 48.976562 99.796875 51.210938 101.3125 53.816406 101.3125 C 57.402344 101.3125 60.335938 98.378906 60.335938 94.792969 C 60.335938 91.207031 57.402344 88.273438 53.816406 88.273438 C 50.535156 88.273438 47.8125 90.695312 47.367188 93.863281 L 40.941406 93.863281 L 35.355469 99.449219 L 25.71875 99.449219 C 25.601562 99.332031 25.460938 99.191406 25.34375 99.078125 C 19.105469 92.835938 14.660156 85.316406 12.214844 77.097656 L 21.945312 77.097656 L 25.671875 84.550781 L 34.914062 84.550781 C 35.960938 86.761719 38.195312 88.273438 40.804688 88.273438 C 44.390625 88.273438 47.324219 85.339844 47.324219 81.753906 C 47.324219 78.171875 44.390625 75.238281 40.804688 75.238281 C 37.519531 75.238281 34.796875 77.65625 34.355469 80.824219 L 28 80.824219 L 24.273438 73.375 L 21.222656 73.375 L 21.222656 69.578125 C 24.390625 69.136719 26.8125 66.414062 26.8125 63.128906 C 26.8125 59.546875 23.878906 56.613281 20.292969 56.613281 C 16.707031 56.613281 13.773438 59.546875 13.773438 63.128906 C 13.773438 65.714844 15.289062 67.972656 17.5 69.019531 L 17.5 73.375 L 11.238281 73.375 C 10.445312 69.742188 10.050781 65.992188 10.050781 62.199219 C 10.050781 59.03125 10.328125 55.9375 10.886719 52.886719 L 27.90625 52.886719 L 33.492188 58.472656 L 46.066406 58.472656 C 47.113281 60.6875 49.347656 62.199219 51.957031 62.199219 C 55.539062 62.199219 58.472656 59.265625 58.472656 55.679688 C 58.472656 52.09375 55.539062 49.160156 51.957031 49.160156 C 48.671875 49.160156 45.949219 51.582031 45.507812 54.75 L 35.03125 54.75 L 29.441406 49.160156 L 11.679688 49.160156 C 13.960938 40.222656 18.617188 32.027344 25.320312 25.320312 C 27.535156 23.109375 29.882812 21.132812 32.398438 19.386719 L 32.398438 35.03125 L 35.054688 37.683594 C 34.539062 38.613281 34.261719 39.664062 34.261719 40.78125 C 34.261719 44.367188 37.195312 47.300781 40.78125 47.300781 C 44.367188 47.300781 47.300781 44.367188 47.300781 40.78125 C 47.300781 37.195312 44.367188 34.261719 40.78125 34.261719 C 39.664062 34.261719 38.59375 34.539062 37.683594 35.054688 L 36.125 33.492188 L 36.125 17.011719 C 41.851562 13.703125 48.136719 11.515625 54.75 10.5625 L 54.75 37.054688 L 60.964844 41.710938 C 60.570312 42.550781 60.335938 43.503906 60.335938 44.503906 C 60.335938 48.089844 63.269531 51.023438 66.855469 51.023438 C 70.441406 51.023438 73.375 48.089844 73.375 44.503906 C 73.375 40.921875 70.441406 37.988281 66.855469 37.988281 C 65.621094 37.988281 64.457031 38.335938 63.457031 38.941406 L 58.472656 35.191406 L 58.472656 10.1875 C 59.707031 10.09375 60.941406 10.050781 62.199219 10.050781 C 65.367188 10.050781 68.460938 10.328125 71.511719 10.886719 L 71.511719 20.011719 C 69.300781 21.0625 67.785156 23.296875 67.785156 25.902344 C 67.785156 29.488281 70.71875 32.421875 74.304688 32.421875 C 77.890625 32.421875 80.824219 29.488281 80.824219 25.902344 C 80.824219 22.621094 78.402344 19.898438 75.238281 19.453125 L 75.238281 11.679688 C 82.222656 13.472656 88.738281 16.707031 94.46875 21.222656 L 93.863281 21.222656 L 93.863281 38.707031 L 78.960938 46.160156 L 78.960938 55.402344 C 76.75 56.449219 75.238281 58.683594 75.238281 61.292969 C 75.238281 64.875 78.171875 67.808594 81.753906 67.808594 C 85.339844 67.808594 88.273438 64.875 88.273438 61.292969 C 88.273438 58.007812 85.851562 55.285156 82.6875 54.84375 L 82.6875 48.488281 L 97.585938 41.035156 L 97.585938 23.902344 C 98.097656 24.367188 98.585938 24.832031 99.078125 25.320312 C 106.246094 32.492188 111.066406 41.363281 113.160156 51.023438 L 104.40625 51.023438 C 103.359375 48.8125 101.101562 47.300781 98.519531 47.300781 Z M 101.3125 53.816406 C 101.3125 55.355469 100.054688 56.613281 98.519531 56.613281 C 96.980469 56.613281 95.722656 55.355469 95.722656 53.816406 C 95.722656 52.28125 96.980469 51.023438 98.519531 51.023438 C 100.054688 51.023438 101.3125 52.28125 101.3125 53.816406 Z M 71.511719 76.167969 C 71.511719 77.703125 70.253906 78.960938 68.71875 78.960938 C 67.179688 78.960938 65.925781 77.703125 65.925781 76.167969 C 65.925781 74.632812 67.179688 73.375 68.71875 73.375 C 70.253906 73.375 71.511719 74.632812 71.511719 76.167969 Z M 93.863281 91.066406 C 93.863281 92.605469 92.605469 93.863281 91.066406 93.863281 C 89.53125 93.863281 88.273438 92.605469 88.273438 91.066406 C 88.273438 89.53125 89.53125 88.273438 91.066406 88.273438 C 92.605469 88.273438 93.863281 89.53125 93.863281 91.066406 Z M 69.648438 92.929688 C 69.648438 91.394531 70.90625 90.136719 72.441406 90.136719 C 73.980469 90.136719 75.238281 91.394531 75.238281 92.929688 C 75.238281 94.46875 73.980469 95.722656 72.441406 95.722656 C 70.90625 95.722656 69.648438 94.46875 69.648438 92.929688 Z M 51.023438 94.792969 C 51.023438 93.257812 52.28125 92 53.816406 92 C 55.355469 92 56.613281 93.257812 56.613281 94.792969 C 56.613281 96.328125 55.355469 97.585938 53.816406 97.585938 C 52.28125 97.585938 51.023438 96.328125 51.023438 94.792969 Z M 17.5 63.128906 C 17.5 61.59375 18.757812 60.335938 20.292969 60.335938 C 21.828125 60.335938 23.085938 61.59375 23.085938 63.128906 C 23.085938 64.667969 21.828125 65.925781 20.292969 65.925781 C 18.757812 65.925781 17.5 64.667969 17.5 63.128906 Z M 37.988281 81.753906 C 37.988281 80.21875 39.242188 78.960938 40.78125 78.960938 C 42.316406 78.960938 43.574219 80.21875 43.574219 81.753906 C 43.574219 83.292969 42.316406 84.550781 40.78125 84.550781 C 39.242188 84.550781 37.988281 83.292969 37.988281 81.753906 Z M 49.160156 55.679688 C 49.160156 54.144531 50.417969 52.886719 51.957031 52.886719 C 53.492188 52.886719 54.75 54.144531 54.75 55.679688 C 54.75 57.21875 53.492188 58.472656 51.957031 58.472656 C 50.417969 58.472656 49.160156 57.21875 49.160156 55.679688 Z M 37.988281 40.78125 C 37.988281 40.339844 38.078125 39.941406 38.265625 39.570312 L 39.570312 38.265625 C 39.941406 38.078125 40.339844 37.988281 40.78125 37.988281 C 42.316406 37.988281 43.574219 39.242188 43.574219 40.78125 C 43.574219 42.316406 42.316406 43.574219 40.78125 43.574219 C 39.242188 43.574219 37.988281 42.316406 37.988281 40.78125 Z M 64.0625 44.503906 C 64.0625 42.96875 65.320312 41.710938 66.855469 41.710938 C 68.390625 41.710938 69.648438 42.96875 69.648438 44.503906 C 69.648438 46.042969 68.390625 47.300781 66.855469 47.300781 C 65.320312 47.300781 64.0625 46.042969 64.0625 44.503906 Z M 81.753906 58.472656 C 83.292969 58.472656 84.550781 59.730469 84.550781 61.269531 C 84.550781 62.804688 83.292969 64.0625 81.753906 64.0625 C 80.21875 64.0625 78.960938 62.804688 78.960938 61.269531 C 78.960938 59.730469 80.21875 58.472656 81.753906 58.472656 Z M 81.753906 58.472656 " fill-opacity="1" fill-rule="nonzero"/></g></svg>