<svg xmlns="http://www.w3.org/2000/svg" xmlns:xlink="http://www.w3.org/1999/xlink" width="250" zoomAndPan="magnify" viewBox="0 0 187.5 112.499997" height="150" preserveAspectRatio="xMidYMid meet" version="1.0"><defs><clipPath id="310e7df777"><path d="M 38.371094 0 L 149.171875 0 L 149.171875 110.804688 L 38.371094 110.804688 Z M 38.371094 0 " clip-rule="nonzero"/></clipPath><clipPath id="336c49c02d"><path d="M 44.144531 5.722656 L 143.714844 5.722656 L 143.714844 105.296875 L 44.144531 105.296875 Z M 44.144531 5.722656 " clip-rule="nonzero"/></clipPath></defs><g clip-path="url(#310e7df777)"><path fill="#ffffff" d="M 93.691406 0 C 63.511719 0 38.421875 24.878906 38.410156 54.8125 C 38.402344 86.0625 62.867188 110.800781 93.792969 110.804688 C 124.289062 110.804688 149.082031 86.003906 149.117188 55.460938 C 149.152344 24.941406 124.226562 0 93.691406 0 Z M 138.296875 49.550781 C 138.277344 49.453125 138.265625 49.355469 138.246094 49.257812 C 138.09375 48.488281 137.417969 47.371094 137.878906 47.046875 C 138.542969 46.574219 139.453125 47.445312 140.261719 47.71875 C 140.820312 47.910156 141.316406 48.277344 141.867188 48.503906 C 142.660156 48.828125 143.164062 49.273438 142.78125 50.144531 C 142.628906 53.996094 142.234375 57.753906 141.386719 61.453125 C 141.308594 61.792969 141.140625 62.121094 141.128906 62.460938 C 141.105469 63.078125 140.640625 63.261719 140.234375 63.25 C 139.621094 63.234375 139.859375 62.640625 139.855469 62.308594 C 139.839844 57.992188 139.199219 53.757812 138.296875 49.550781 Z M 68.019531 94.03125 C 68.082031 93.898438 68.140625 93.769531 68.203125 93.636719 C 70.632812 93.980469 73.0625 94.320312 75.890625 94.714844 C 74.027344 95.3125 72.550781 96.015625 71.011719 96.210938 C 69.484375 96.410156 69.023438 94.773438 68.019531 94.03125 Z M 70.085938 99.292969 C 70.960938 100.671875 71.910156 102.003906 73.03125 103.65625 C 70.71875 102.757812 68.882812 101.777344 67.046875 100.796875 C 66.335938 100.414062 66.417969 100.003906 66.878906 99.511719 C 67.085938 99.292969 67.289062 99.070312 67.515625 98.878906 C 68.996094 97.609375 69.042969 97.640625 70.085938 99.292969 Z M 68.417969 92.96875 C 67.785156 92.851562 67.5 92.515625 67.296875 91.945312 C 65.679688 87.410156 64.6875 82.734375 64.160156 77.957031 C 63.992188 76.414062 63.949219 74.863281 63.789062 73.320312 C 63.703125 72.484375 63.898438 72.054688 64.828125 71.921875 C 66.996094 71.609375 69.164062 71.253906 71.300781 70.769531 C 72.410156 70.519531 72.683594 71.058594 72.867188 71.894531 C 73.601562 75.1875 74.582031 78.414062 75.675781 81.601562 C 76.917969 85.226562 78.332031 88.785156 80.070312 92.207031 C 80.917969 93.875 80.894531 93.886719 79.085938 94.226562 C 78.84375 94.273438 78.597656 94.316406 78.40625 94.347656 C 75.03125 93.933594 71.703125 93.59375 68.417969 92.96875 Z M 47.617188 48.546875 C 47.714844 51.199219 47.816406 53.847656 48.3125 56.460938 C 48.71875 58.617188 49.152344 60.769531 49.550781 62.929688 C 49.613281 63.25 49.984375 63.605469 49.652344 63.898438 C 49.359375 64.160156 49.019531 63.902344 48.699219 63.757812 C 47.707031 63.304688 46.707031 62.859375 45.691406 62.457031 C 44.8125 62.105469 44.441406 61.515625 44.671875 60.578125 C 44.925781 56.664062 45.339844 52.761719 46.199219 48.921875 C 46.242188 48.730469 46.371094 48.558594 46.414062 48.367188 C 46.523438 47.914062 46.796875 47.621094 47.253906 47.6875 C 47.746094 47.761719 47.605469 48.234375 47.617188 48.546875 Z M 48.238281 43.960938 C 48.128906 41.023438 49.753906 38.390625 50.957031 35.625 C 51.179688 35.117188 51.488281 35.039062 52.023438 35.296875 C 56.4375 37.457031 61.136719 38.726562 65.925781 39.722656 C 66.289062 39.800781 67.070312 39.585938 66.957031 40.449219 C 66.875 41.09375 66.808594 41.648438 65.910156 41.808594 C 61.570312 42.589844 57.222656 43.371094 53.011719 44.730469 C 51.878906 45.097656 50.695312 45.363281 49.632812 45.875 C 48.28125 46.527344 48.117188 45.933594 48.234375 44.808594 C 48.257812 44.609375 48.238281 44.40625 48.238281 43.960938 Z M 119.386719 17.273438 C 116.925781 16.914062 114.542969 16.570312 112.15625 16.222656 C 112.164062 16.140625 112.167969 16.058594 112.171875 15.976562 C 113.484375 15.554688 114.796875 15.117188 116.117188 14.710938 C 117.191406 14.382812 118.542969 15.417969 119.386719 17.273438 Z M 117.316406 11.453125 C 116.476562 10.132812 115.566406 8.851562 114.507812 7.289062 C 116.855469 8.117188 118.761719 9.15625 120.648438 10.230469 C 121.109375 10.492188 121.066406 10.855469 120.722656 11.214844 C 120.550781 11.394531 120.398438 11.589844 120.21875 11.765625 C 118.648438 13.289062 118.457031 13.25 117.316406 11.453125 Z M 118.945312 17.882812 C 119.660156 18.003906 119.953125 18.320312 120.179688 18.945312 C 121.871094 23.613281 122.851562 28.4375 123.371094 33.359375 C 123.523438 34.800781 123.5625 36.25 123.710938 37.691406 C 123.789062 38.429688 123.527344 38.816406 122.8125 38.945312 C 120.457031 39.359375 118.101562 39.757812 115.753906 40.21875 C 114.785156 40.410156 114.800781 39.648438 114.683594 39.160156 C 113.890625 35.777344 112.902344 32.457031 111.773438 29.175781 C 110.53125 25.558594 109.113281 22.011719 107.375 18.597656 C 106.511719 16.894531 106.566406 16.824219 108.414062 16.707031 C 108.859375 16.675781 109.308594 16.664062 109.734375 16.644531 C 112.839844 16.929688 115.898438 17.363281 118.945312 17.882812 Z M 131.605469 36.496094 C 129.65625 37.097656 127.699219 37.671875 125.746094 38.265625 C 124.554688 38.628906 124.355469 38.164062 124.304688 37.199219 C 124.085938 32.746094 123.453125 28.351562 122.371094 24.03125 C 121.925781 22.253906 121.367188 20.507812 120.859375 18.75 C 122.941406 20.273438 124.464844 22.238281 125.960938 24.222656 C 128.433594 27.5 130.503906 31.03125 132.398438 34.675781 C 132.96875 35.765625 132.734375 36.144531 131.605469 36.496094 Z M 133.515625 37.117188 C 134.628906 39.761719 135.738281 42.410156 136.523438 45.480469 C 132.585938 44.261719 128.933594 43.214844 125.164062 42.640625 C 124.835938 42.589844 124.640625 42.425781 124.523438 42.105469 C 123.914062 40.433594 124.570312 39.152344 126.316406 38.726562 C 128.347656 38.230469 130.335938 37.605469 132.292969 36.871094 C 132.738281 36.703125 133.210938 36.394531 133.515625 37.117188 Z M 123.792969 46.8125 C 123.40625 53.8125 122.347656 60.695312 120.652344 67.492188 C 120.378906 68.585938 119.585938 68.792969 118.769531 68.738281 C 117.878906 68.679688 118.214844 67.800781 118.214844 67.285156 C 118.230469 59.140625 117.265625 51.105469 115.535156 43.15625 C 115.355469 42.320312 115.40625 41.730469 116.597656 41.945312 C 118.746094 42.328125 120.914062 42.585938 123.078125 42.882812 C 123.746094 42.976562 123.816406 43.402344 123.800781 43.964844 C 123.769531 44.914062 123.792969 45.863281 123.792969 46.8125 Z M 119.070312 70.667969 C 118.738281 70.558594 118.152344 70.753906 118.25 70.105469 C 118.355469 69.402344 118.953125 69.363281 119.507812 69.339844 C 119.847656 69.324219 120.101562 69.429688 120 69.878906 C 119.820312 70.269531 119.835938 70.917969 119.070312 70.667969 Z M 119.375 72.007812 C 119.078125 72.832031 118.792969 73.664062 118.503906 74.496094 C 118.402344 74.488281 118.300781 74.480469 118.203125 74.476562 C 118.203125 73.585938 118.203125 72.695312 118.203125 71.804688 C 118.203125 71.339844 118.414062 71.199219 118.863281 71.328125 C 119.21875 71.433594 119.554688 71.503906 119.375 72.007812 Z M 98.351562 68.765625 C 97.292969 68.796875 97.453125 68.039062 97.492188 67.417969 C 97.75 63.421875 97.804688 59.421875 98.078125 55.421875 C 98.078125 51.421875 98.101562 47.421875 98.058594 43.417969 C 98.050781 42.53125 98.285156 42.257812 99.21875 42.191406 C 103 41.9375 106.804688 41.960938 110.566406 41.390625 C 110.761719 41.359375 110.964844 41.378906 111.167969 41.375 C 114.257812 41.332031 114.464844 41.449219 115.097656 44.433594 C 116.101562 49.15625 116.679688 53.933594 117.132812 58.742188 C 117.40625 61.683594 117.199219 64.644531 117.65625 67.5625 C 117.835938 68.710938 117.277344 68.960938 116.261719 69.125 C 110.261719 70.097656 104.324219 68.59375 98.351562 68.765625 Z M 106.265625 69.710938 C 103.636719 70.09375 101.015625 70.429688 98.367188 70.300781 C 98.007812 70.28125 97.488281 70.445312 97.503906 69.792969 C 97.519531 69.28125 97.945312 69.320312 98.277344 69.335938 C 100.941406 69.453125 103.605469 69.585938 106.265625 69.710938 Z M 96.960938 67.527344 C 96.976562 68.453125 96.621094 68.746094 95.714844 68.699219 C 94.265625 68.625 92.8125 68.59375 91.367188 68.671875 C 90.328125 68.730469 89.972656 68.429688 89.988281 67.351562 C 90.046875 63.347656 90.597656 47.332031 90.558594 43.328125 C 90.550781 42.464844 90.832031 42.195312 91.675781 42.234375 C 93.074219 42.292969 94.480469 42.335938 95.875 42.234375 C 97.113281 42.144531 97.53125 42.515625 97.472656 43.800781 C 97.183594 50.203125 97.402344 56.621094 97.027344 63.019531 C 96.9375 64.519531 96.933594 66.023438 96.960938 67.527344 Z M 88.101562 68.78125 C 83.710938 68.921875 79.320312 69.164062 74.933594 69.417969 C 73.398438 69.507812 72.832031 68.867188 72.515625 67.359375 C 70.945312 59.871094 70.261719 52.289062 69.878906 44.671875 C 69.734375 41.828125 69.785156 42.007812 72.578125 41.621094 C 75.449219 41.21875 78.253906 41.5625 81.085938 41.710938 C 83.457031 41.835938 86.324219 42.074219 88.777344 42.191406 C 89.167969 42.210938 89.472656 42.53125 89.472656 42.921875 L 89.472656 67.257812 C 89.488281 68.308594 89.277344 68.742188 88.101562 68.78125 Z M 88.589844 70.296875 C 86.082031 70.191406 83.570312 70.0625 81.0625 69.941406 C 81.0625 69.855469 81.0625 69.765625 81.0625 69.679688 C 83.582031 69.5625 86.097656 69.441406 88.617188 69.335938 C 88.933594 69.324219 89.371094 69.234375 89.410156 69.753906 C 89.457031 70.390625 88.960938 70.3125 88.589844 70.296875 Z M 63.605469 69.71875 C 63.523438 69.222656 63.398438 68.554688 64.347656 68.703125 C 66.007812 68.964844 67.671875 69.183594 69.335938 69.421875 C 70.0625 69.527344 70.792969 69.636719 71.519531 69.746094 C 71.535156 69.835938 71.550781 69.925781 71.566406 70.015625 C 69.109375 70.488281 66.664062 71.085938 64.183594 71.367188 C 63.21875 71.476562 63.703125 70.308594 63.605469 69.71875 Z M 70.664062 68.925781 C 68.6875 68.476562 66.65625 68.214844 64.636719 67.992188 C 63.648438 67.882812 63.546875 67.414062 63.648438 66.609375 C 63.761719 65.714844 63.789062 64.8125 63.851562 63.914062 C 64.074219 56.953125 65.164062 50.121094 66.839844 43.367188 C 67.105469 42.296875 67.746094 42.175781 68.570312 42.226562 C 69.519531 42.285156 69.191406 43.117188 69.242188 43.609375 C 69.511719 46.191406 69.359375 48.789062 69.578125 51.390625 C 70.035156 56.855469 70.765625 62.265625 71.898438 67.621094 C 72.160156 68.851562 72.085938 69.25 70.664062 68.925781 Z M 68.746094 39.617188 C 68.175781 39.546875 67.964844 39.257812 68.164062 38.703125 C 68.457031 37.886719 68.746094 37.070312 69.039062 36.253906 C 69.136719 36.28125 69.234375 36.308594 69.332031 36.332031 C 69.332031 37.171875 69.339844 38.007812 69.332031 38.847656 C 69.328125 39.238281 69.382812 39.691406 68.746094 39.617188 Z M 68.371094 40.167969 C 68.804688 40.214844 69.167969 40.289062 69.152344 40.835938 C 69.128906 41.515625 68.632812 41.453125 68.183594 41.453125 C 67.847656 41.453125 67.410156 41.535156 67.507812 40.96875 C 67.585938 40.503906 67.765625 40.105469 68.371094 40.167969 Z M 89.132812 41.488281 C 86.449219 41.546875 83.785156 41.28125 81.117188 40.921875 C 83.808594 40.902344 86.476562 40.582031 89.152344 40.484375 C 89.515625 40.472656 90.03125 40.359375 90.019531 40.992188 C 90.003906 41.609375 89.503906 41.480469 89.132812 41.488281 Z M 96.160156 70.304688 C 95.214844 70.308594 94.269531 70.304688 93.320312 70.304688 C 93.320312 70.304688 93.320312 70.300781 93.320312 70.296875 C 92.425781 70.296875 91.527344 70.304688 90.632812 70.296875 C 90.320312 70.292969 90.027344 70.21875 90.027344 69.8125 C 90.03125 69.40625 90.320312 69.328125 90.632812 69.324219 C 92.476562 69.320312 94.320312 69.320312 96.160156 69.328125 C 96.472656 69.328125 96.777344 69.390625 96.765625 69.800781 C 96.75 70.175781 96.496094 70.304688 96.160156 70.304688 Z M 96.6875 72.152344 C 96.417969 76.894531 96.191406 81.636719 95.917969 86.375 C 95.808594 88.320312 95.582031 90.257812 95.480469 92.203125 C 95.441406 92.894531 95.257812 93.214844 94.53125 93.152344 C 93.984375 93.109375 93.429688 93.148438 92.882812 93.148438 C 90.359375 93.148438 90.328125 93.148438 90.296875 90.546875 C 90.257812 87.648438 90.019531 75.546875 89.972656 72.398438 C 89.960938 71.472656 90.152344 71.03125 91.195312 71.089844 C 92.691406 71.179688 94.195312 71.15625 95.691406 71.109375 C 96.496094 71.082031 96.730469 71.382812 96.6875 72.152344 Z M 91.351562 40.484375 C 92.296875 40.480469 93.246094 40.480469 94.191406 40.480469 C 94.191406 40.480469 94.191406 40.476562 94.191406 40.476562 C 94.988281 40.476562 95.785156 40.464844 96.582031 40.484375 C 96.953125 40.492188 97.445312 40.378906 97.429688 41.015625 C 97.417969 41.488281 97.054688 41.542969 96.695312 41.566406 C 94.902344 41.699219 93.113281 41.664062 91.320312 41.53125 C 91.023438 41.511719 90.707031 41.472656 90.683594 41.066406 C 90.652344 40.589844 90.96875 40.484375 91.351562 40.484375 Z M 98.125 40.929688 C 98.171875 40.40625 98.601562 40.472656 98.917969 40.519531 C 101.183594 40.839844 103.472656 40.75 105.734375 40.9375 C 103.476562 41.617188 101.183594 41.394531 98.917969 41.507812 C 98.523438 41.527344 98.0625 41.542969 98.125 40.929688 Z M 123.789062 42.039062 C 123.710938 42.546875 123.234375 42.179688 122.925781 42.136719 C 120.433594 41.765625 117.941406 41.402344 115.085938 40.980469 C 117.917969 40.464844 120.394531 40.003906 122.871094 39.566406 C 123.1875 39.511719 123.679688 39.335938 123.75 39.816406 C 123.855469 40.546875 123.90625 41.316406 123.789062 42.039062 Z M 114.03125 39.292969 C 114.242188 40.113281 113.945312 40.542969 113.078125 40.539062 C 112.480469 40.535156 111.878906 40.539062 111.28125 40.539062 C 107.195312 40.351562 103.121094 39.835938 99.019531 39.957031 C 98.308594 39.976562 98.0625 39.71875 98.074219 39.003906 C 98.183594 32.246094 97.882812 25.496094 97.730469 18.742188 C 97.710938 17.875 98.019531 17.652344 98.84375 17.613281 C 100.882812 17.507812 102.925781 17.335938 104.953125 17.09375 C 105.632812 17.015625 105.945312 17.226562 106.226562 17.777344 C 109.714844 24.628906 112.132812 31.867188 114.03125 39.292969 Z M 98.46875 17.089844 C 98.03125 17.152344 97.664062 17.058594 97.644531 16.5 C 97.621094 15.90625 98.019531 15.867188 98.441406 15.890625 C 100.5625 15.996094 102.683594 16.113281 104.804688 16.222656 C 102.742188 16.988281 100.574219 16.78125 98.46875 17.089844 Z M 104.152344 15.59375 C 102.109375 15.507812 100.066406 15.394531 98.023438 15.289062 C 97.660156 15.273438 97.511719 15.054688 97.488281 14.710938 C 97.285156 11.636719 97.074219 8.5625 96.84375 5.160156 C 100.210938 8.082031 102.539062 11.347656 104.546875 14.871094 C 104.867188 15.429688 104.6875 15.613281 104.152344 15.59375 Z M 96.324219 17.105469 C 95.679688 17.105469 95.03125 17.105469 94.386719 17.105469 C 94.386719 17.109375 94.386719 17.113281 94.386719 17.117188 C 93.890625 17.117188 93.394531 17.132812 92.898438 17.109375 C 92.570312 17.097656 92.140625 17.15625 92.203125 16.605469 C 92.242188 16.257812 92.292969 15.859375 92.757812 15.855469 C 94 15.839844 95.238281 15.851562 96.480469 15.875 C 96.863281 15.878906 96.933594 16.167969 96.953125 16.496094 C 96.980469 16.960938 96.730469 17.105469 96.324219 17.105469 Z M 93.300781 17.753906 C 93.449219 17.777344 93.601562 17.769531 93.75 17.769531 C 97.121094 17.796875 97.152344 17.796875 97.21875 21.28125 C 97.269531 23.933594 97.449219 35.546875 97.507812 38.699219 C 97.527344 39.769531 97.074219 39.945312 96.15625 39.890625 C 94.710938 39.804688 93.257812 39.777344 91.8125 39.820312 C 90.996094 39.84375 90.769531 39.542969 90.808594 38.773438 C 90.972656 35.476562 91.054688 32.175781 91.257812 28.878906 C 91.460938 25.535156 91.8125 22.199219 92.015625 18.855469 C 92.074219 17.90625 92.4375 17.617188 93.300781 17.753906 Z M 90.511719 17.097656 C 87.847656 16.921875 85.1875 16.71875 82.523438 16.523438 C 82.539062 16.40625 82.558594 16.292969 82.574219 16.179688 C 85.203125 16.0625 87.832031 15.933594 90.464844 15.847656 C 90.886719 15.832031 91.53125 15.585938 91.550781 16.433594 C 91.570312 17.25 90.976562 17.128906 90.511719 17.097656 Z M 90.363281 17.664062 C 91.050781 17.660156 91.453125 17.753906 91.386719 18.664062 C 90.925781 25.347656 90.519531 32.039062 90.121094 38.726562 C 90.078125 39.472656 89.96875 39.953125 89.050781 39.9375 C 84.753906 39.859375 80.472656 40.175781 76.90625 40.527344 C 74.332031 40.613281 72.53125 40.101562 70.695312 39.945312 C 69.628906 39.855469 70.03125 39.109375 69.984375 38.5 C 69.453125 31.46875 73.328125 25.96875 76.230469 20.101562 C 77.558594 17.417969 79.117188 16.101562 82.324219 16.96875 C 84.90625 17.667969 87.660156 17.667969 90.363281 17.664062 Z M 70.917969 29.058594 C 70.578125 27.359375 71.148438 25.726562 71.417969 24.101562 C 71.753906 22.105469 72.390625 20.164062 72.828125 18.183594 C 73.007812 17.367188 73.355469 16.988281 74.21875 17 C 75.253906 17.011719 76.265625 16.546875 77.5625 16.84375 C 75.011719 20.863281 72.890625 24.898438 70.917969 29.058594 Z M 73.460938 14.0625 C 73.246094 14.546875 72.816406 14.464844 72.4375 14.3125 C 71.527344 13.945312 70.542969 13.734375 69.675781 13.042969 C 71.429688 11.671875 73.203125 10.441406 75.546875 9.273438 C 74.738281 11.136719 74.113281 12.601562 73.460938 14.0625 Z M 69.6875 13.851562 C 70.402344 14.199219 71.160156 14.460938 71.886719 14.78125 C 72.300781 14.96875 72.996094 14.902344 72.898438 15.640625 C 72.8125 16.320312 72.316406 16.613281 71.664062 16.71875 C 69.699219 17.035156 67.742188 17.394531 65.773438 17.699219 C 65.25 17.78125 64.769531 18.195312 63.9375 17.796875 C 65.464844 16.46875 66.878906 15.234375 68.304688 14.007812 C 68.71875 13.652344 69.164062 13.601562 69.6875 13.851562 Z M 71.847656 17.339844 C 71.976562 17.328125 72.121094 17.417969 72.304688 17.476562 C 70.894531 22.324219 70.140625 27.253906 69.554688 32.242188 C 69.292969 34.46875 68.210938 36.601562 67.503906 38.78125 C 67.34375 39.265625 67.035156 39.300781 66.566406 39.203125 C 61.773438 38.222656 57.050781 37.035156 52.605469 34.90625 C 51.792969 34.519531 51.644531 34.222656 52.097656 33.390625 C 54.855469 28.320312 58.265625 23.742188 62.195312 19.539062 C 62.429688 19.289062 62.722656 19.003906 63.03125 18.933594 C 65.945312 18.277344 68.867188 17.652344 71.847656 17.339844 Z M 52.316406 31.527344 C 52.023438 32.042969 51.753906 32.574219 51.433594 33.078125 C 51.230469 33.402344 51.238281 34.046875 50.542969 33.746094 C 49.960938 33.496094 49.875 33.070312 50.039062 32.523438 C 50.386719 31.382812 50.707031 30.230469 51.078125 29.097656 C 51.339844 28.292969 51.742188 27.53125 51.945312 26.714844 C 53.109375 21.980469 56.429688 20.003906 61.171875 19.601562 C 57.671875 23.285156 54.773438 27.242188 52.316406 31.527344 Z M 50.113281 34.269531 C 50.410156 34.394531 50.746094 34.515625 50.46875 35 C 50.074219 35.699219 49.871094 36.507812 49.265625 37.175781 C 48.917969 36.238281 49.460938 35.484375 49.503906 34.675781 C 49.523438 34.359375 49.746094 34.113281 50.113281 34.269531 Z M 48.230469 48.324219 C 48.222656 47.722656 48.15625 47.144531 48.90625 46.855469 C 54.289062 44.78125 59.898438 43.582031 65.582031 42.585938 C 66.277344 42.503906 66.410156 42.824219 66.230469 43.472656 C 64.796875 48.679688 63.976562 53.996094 63.449219 59.359375 C 63.214844 61.742188 63.140625 64.148438 63.058594 66.542969 C 63.027344 67.359375 62.878906 67.734375 61.945312 67.535156 C 58.503906 66.796875 55.085938 65.976562 51.730469 64.90625 C 51.007812 64.675781 50.546875 64.335938 50.351562 63.550781 C 49.113281 58.546875 48.269531 53.492188 48.230469 48.324219 Z M 62.136719 68.214844 C 63.308594 68.402344 63.054688 69.332031 63.015625 70.074219 C 62.976562 70.769531 63.421875 71.605469 62.136719 71.914062 C 59.773438 72.480469 57.460938 73.269531 55.144531 74.027344 C 54.585938 74.210938 54.207031 74.300781 53.9375 73.675781 C 52.800781 71.039062 51.738281 68.378906 50.945312 65.414062 C 54.75 66.5625 58.386719 67.621094 62.136719 68.214844 Z M 57.34375 73.878906 C 58.765625 73.433594 60.21875 73.082031 61.640625 72.632812 C 62.628906 72.316406 63.078125 72.367188 63.15625 73.648438 C 63.476562 78.929688 64.242188 84.152344 65.757812 89.238281 C 66.066406 90.269531 66.402344 91.296875 66.726562 92.328125 C 62.140625 87.984375 58.628906 82.988281 55.800781 77.511719 C 54.414062 74.824219 54.441406 74.792969 57.34375 73.878906 Z M 73.476562 71.691406 C 73.261719 70.867188 73.355469 70.550781 74.320312 70.359375 C 76.34375 69.953125 78.320312 70.425781 80.277344 70.605469 C 82.964844 70.847656 85.660156 70.691406 88.339844 71.03125 C 89.285156 71.148438 89.476562 71.4375 89.464844 72.292969 C 89.425781 75.59375 89.726562 88.691406 89.769531 91.9375 C 89.78125 92.789062 89.648438 93.171875 88.667969 93.214844 C 86.777344 93.292969 84.890625 93.515625 83.011719 93.746094 C 82.035156 93.863281 81.496094 93.566406 81.039062 92.652344 C 77.683594 85.960938 75.339844 78.917969 73.476562 71.691406 Z M 89.085938 93.847656 C 89.503906 93.820312 89.765625 93.933594 89.792969 94.390625 C 89.824219 94.898438 89.488281 94.964844 89.113281 94.945312 C 86.929688 94.847656 84.75 94.742188 82.566406 94.640625 C 84.722656 94.011719 86.910156 93.980469 89.085938 93.847656 Z M 89.144531 95.546875 C 89.667969 95.546875 89.984375 95.777344 90.023438 96.339844 C 90.222656 99.273438 90.429688 102.210938 90.625 105.144531 C 90.628906 105.214844 90.53125 105.289062 90.367188 105.527344 C 87.125 102.644531 84.6875 99.214844 82.71875 95.546875 C 84.894531 95.546875 87.019531 95.542969 89.144531 95.546875 Z M 91.136719 93.746094 C 92.320312 93.722656 93.507812 93.714844 94.691406 93.707031 C 95.039062 93.707031 95.253906 93.871094 95.238281 94.246094 C 95.21875 94.605469 95.160156 94.960938 94.695312 94.972656 C 94.101562 94.988281 93.507812 94.976562 92.914062 94.976562 C 92.914062 94.972656 92.914062 94.96875 92.914062 94.964844 C 92.371094 94.964844 91.828125 94.96875 91.285156 94.960938 C 90.925781 94.960938 90.578125 94.9375 90.5625 94.441406 C 90.550781 94.035156 90.707031 93.757812 91.136719 93.746094 Z M 95.667969 96.539062 C 95.71875 95.890625 95.988281 95.683594 96.589844 95.65625 C 100.367188 95.507812 104.144531 95.339844 108.328125 95.164062 C 104.539062 100.292969 100.507812 104.550781 95.101562 107.328125 C 94.855469 107.453125 94.5625 107.730469 94.316406 107.449219 C 94.199219 107.3125 94.257812 106.980469 94.304688 106.75 C 94.964844 103.371094 95.386719 99.964844 95.667969 96.539062 Z M 95.96875 94.386719 C 95.996094 93.722656 96.453125 93.726562 96.917969 93.761719 C 98.851562 93.90625 100.785156 94.066406 102.722656 94.21875 C 103.3125 94.261719 103.902344 94.296875 104.488281 94.339844 C 101.9375 95.035156 99.351562 94.945312 96.773438 94.96875 C 96.378906 94.972656 95.941406 95.011719 95.96875 94.386719 Z M 107.8125 94.230469 C 104.375 93.585938 100.886719 93.285156 97.394531 93.191406 C 96.105469 93.15625 96.042969 92.757812 96.128906 91.625 C 96.546875 86.242188 96.84375 80.851562 97.175781 75.460938 C 97.210938 74.914062 97.191406 74.363281 97.214844 73.8125 C 97.339844 71.199219 97.351562 71.28125 99.875 71.054688 C 103.652344 70.71875 107.445312 70.722656 111.222656 70.332031 C 113.058594 70.140625 114.972656 70.722656 116.847656 70.972656 C 117.425781 71.050781 117.484375 71.464844 117.457031 71.976562 C 117.414062 72.824219 117.445312 73.675781 117.445312 74.523438 C 117.710938 76.851562 116.988281 78.945312 116.074219 81.039062 C 114.191406 85.347656 112.089844 89.53125 109.511719 93.46875 C 109.078125 94.132812 108.671875 94.394531 107.8125 94.230469 Z M 116.609375 81.726562 C 116.917969 83.441406 116.34375 85.078125 116.082031 86.714844 C 115.78125 88.617188 115.121094 90.457031 114.753906 92.351562 C 114.542969 93.414062 114.050781 93.886719 113 93.941406 C 112.007812 93.996094 111.023438 94.136719 109.757812 94.265625 C 112.4375 90.128906 114.59375 85.988281 116.609375 81.726562 Z M 115.351562 96.667969 C 116.140625 97.046875 117.457031 97.09375 117.597656 97.828125 C 117.722656 98.464844 116.449219 98.894531 115.765625 99.363281 C 114.597656 100.164062 113.367188 100.871094 112.164062 101.621094 C 112.105469 101.539062 112.046875 101.457031 111.992188 101.375 C 112.597656 100.015625 113.261719 98.675781 113.789062 97.289062 C 114.125 96.398438 114.578125 96.292969 115.351562 96.667969 Z M 115.570312 96.09375 C 115.179688 95.90625 114.480469 95.992188 114.605469 95.214844 C 114.71875 94.511719 115.152344 94.304688 115.835938 94.199219 C 118.386719 93.804688 120.921875 93.324219 123.460938 92.878906 C 123.519531 92.949219 123.574219 93.023438 123.632812 93.09375 C 122.085938 94.410156 120.53125 95.722656 118.992188 97.050781 C 118.613281 97.375 118.289062 97.25 117.902344 97.074219 C 117.136719 96.726562 116.332031 96.457031 115.570312 96.09375 Z M 115.15625 93.585938 C 116.613281 88.441406 117.386719 83.410156 117.984375 78.328125 C 118.230469 76.246094 119.304688 74.269531 119.949219 72.230469 C 120.179688 71.507812 120.691406 71.644531 121.148438 71.738281 C 125.894531 72.679688 130.550781 73.914062 134.957031 75.984375 C 135.75 76.359375 135.808594 76.753906 135.410156 77.488281 C 132.644531 82.546875 129.28125 87.160156 125.308594 91.332031 C 125.035156 91.617188 124.773438 91.878906 124.339844 91.976562 C 121.382812 92.640625 118.421875 93.265625 115.15625 93.585938 Z M 133.367188 82.242188 C 134.285156 80.761719 135.148438 79.246094 136.042969 77.75 C 136.257812 77.390625 136.363281 76.835938 137.007812 77.164062 C 137.496094 77.414062 137.597656 77.820312 137.46875 78.300781 C 136.484375 81.972656 135.144531 85.507812 133.300781 88.84375 C 133.117188 89.171875 132.851562 89.386719 132.519531 89.507812 C 130.617188 90.210938 128.710938 90.90625 126.625 91.207031 C 129.027344 88.300781 131.394531 85.417969 133.367188 82.242188 Z M 137.378906 76.628906 C 137.042969 76.484375 136.785156 76.304688 137.027344 75.847656 C 137.414062 75.128906 137.746094 74.382812 138.265625 73.304688 C 138.496094 74.59375 138.074219 75.371094 137.980469 76.195312 C 137.949219 76.453125 137.785156 76.800781 137.378906 76.628906 Z M 136.5 75.347656 C 136.238281 75.886719 135.878906 75.789062 135.410156 75.558594 C 130.996094 73.382812 126.289062 72.128906 121.488281 71.175781 C 121.058594 71.089844 120.394531 71.136719 120.550781 70.335938 C 120.65625 69.8125 120.613281 69.160156 121.332031 69.054688 C 127.425781 68.171875 133.378906 66.730469 139.167969 64.589844 C 139.777344 68.621094 138.132812 71.980469 136.5 75.347656 Z M 137.359375 64.519531 C 132.5625 66.171875 127.636719 67.253906 122.667969 68.183594 C 121.074219 68.480469 121.050781 68.398438 121.445312 66.828125 C 123.277344 59.535156 124.195312 52.117188 124.4375 44.609375 C 124.46875 43.574219 124.554688 43.167969 125.804688 43.429688 C 129.207031 44.132812 132.558594 44.972656 135.867188 46.03125 C 136.585938 46.257812 136.949219 46.632812 137.125 47.316406 C 138.347656 52.019531 139.035156 56.800781 139.308594 61.960938 C 139.777344 63.375 138.824219 64.011719 137.359375 64.519531 Z M 143.421875 49.625 C 146.390625 50.714844 148.355469 53.351562 148.304688 55.976562 C 148.277344 57.347656 147.507812 58.289062 146.644531 59.203125 C 145.332031 60.585938 143.765625 61.582031 141.890625 62.496094 C 142.753906 58.132812 143.5625 53.953125 143.421875 49.625 Z M 141.253906 30.523438 C 145.101562 37.175781 147.394531 44.203125 147.914062 51.820312 C 146.609375 50.707031 145.347656 49.664062 143.925781 48.84375 C 143.359375 48.519531 143.40625 48.054688 143.417969 47.5625 C 143.503906 42.332031 142.523438 37.273438 141.003906 32.292969 C 140.777344 31.554688 140.789062 31.550781 141.253906 30.523438 Z M 142.59375 44.328125 C 142.652344 45.226562 142.71875 46.121094 142.765625 46.832031 C 143.003906 48.019531 142.628906 48.199219 141.800781 47.703125 C 141.757812 47.679688 141.71875 47.644531 141.671875 47.632812 C 138.394531 46.757812 136.378906 44.800781 135.824219 41.3125 C 135.613281 39.96875 134.902344 38.683594 134.300781 37.429688 C 133.890625 36.582031 133.933594 36.148438 134.878906 35.753906 C 136.535156 35.0625 138.070312 34.117188 139.402344 32.902344 C 140.058594 32.300781 140.28125 32.351562 140.546875 33.238281 C 141.632812 36.867188 142.359375 40.550781 142.59375 44.328125 Z M 140.535156 28.082031 C 139.859375 27.101562 139.1875 26.125 138.515625 25.144531 C 139.753906 25.734375 140.417969 26.722656 140.535156 28.082031 Z M 135.253906 19.792969 C 136.117188 20.878906 136.984375 21.964844 137.847656 23.054688 C 136.15625 22.625 135.988281 20.984375 134.824219 20.132812 C 134.96875 20.019531 135.109375 19.90625 135.253906 19.792969 Z M 136.921875 24.519531 C 137.898438 26.476562 138.84375 28.445312 139.636719 30.488281 C 139.921875 31.21875 139.839844 31.683594 139.292969 32.195312 C 137.8125 33.578125 136.066406 34.527344 134.269531 35.398438 C 133.382812 35.832031 133.261719 35.097656 133.019531 34.605469 C 130.96875 30.421875 128.53125 26.480469 125.667969 22.808594 C 124.601562 21.441406 123.464844 20.121094 122.125 18.496094 C 126.703125 19.476562 130.808594 20.613281 134.707031 22.421875 C 135.703125 22.882812 136.429688 23.527344 136.921875 24.519531 Z M 133.394531 20.101562 C 133.761719 20.484375 134.101562 20.894531 134.457031 21.292969 C 130.738281 20.007812 127.058594 18.808594 123.261719 18.132812 C 120.984375 17.726562 119.796875 16.46875 118.972656 14.507812 C 118.703125 13.863281 118.746094 13.511719 119.359375 13.183594 C 119.753906 12.972656 120.238281 12.75 120.433594 12.394531 C 121.570312 10.3125 122.746094 11.417969 123.988281 12.25 C 127.402344 14.539062 130.542969 17.144531 133.394531 20.101562 Z M 121.886719 8.761719 C 124.464844 9.730469 130.519531 14.964844 132.0625 17.597656 C 131.566406 17.589844 131.363281 17.230469 131.105469 17 C 128.539062 14.707031 125.828125 12.601562 122.871094 10.832031 C 122.015625 10.320312 121.679688 9.710938 121.886719 8.761719 Z M 121.175781 9.519531 C 118.011719 7.601562 114.117188 7.058594 111.429688 4.261719 C 115.039062 5.359375 118.996094 5.800781 121.175781 9.519531 Z M 110.636719 4.902344 C 108.167969 4.335938 105.769531 3.636719 103.339844 3.03125 C 105.871094 3.289062 108.558594 2.902344 110.636719 4.902344 Z M 112.402344 6.480469 C 114.355469 7.367188 115.355469 9.539062 116.511719 11.34375 C 116.921875 11.980469 117.886719 12.941406 117.421875 13.328125 C 116.628906 13.984375 116 12.796875 115.390625 12.320312 C 110.75 8.691406 105.722656 5.777344 100.132812 3.875 C 99.765625 3.75 99.410156 3.59375 99.050781 3.449219 C 103.695312 3.742188 108.21875 4.578125 112.402344 6.480469 Z M 116.390625 13.964844 C 112.976562 15.019531 109.933594 16.34375 106.492188 15.691406 C 105.921875 15.585938 105.59375 15.3125 105.34375 14.871094 C 103.066406 10.792969 100.378906 7.046875 96.722656 4.070312 C 96.636719 4 96.652344 3.800781 96.578125 3.46875 C 104.003906 5.371094 110.371094 8.96875 116.390625 13.964844 Z M 94.289062 3.351562 C 95.066406 3.476562 95.96875 3.980469 96.066406 5.089844 C 96.25 7.167969 96.46875 9.246094 96.664062 11.324219 C 96.714844 11.867188 96.710938 12.421875 96.773438 12.964844 C 97.03125 15.316406 97.035156 15.316406 94.753906 15.28125 C 92.285156 15.242188 92.28125 15.242188 92.601562 12.785156 C 92.949219 10.121094 93.253906 7.453125 93.6875 4.804688 C 93.769531 4.3125 93.625 3.246094 94.289062 3.351562 Z M 91.839844 14.324219 C 91.777344 15.246094 91.21875 15.320312 90.507812 15.300781 C 86.8125 15.21875 83.132812 15.550781 79.132812 15.820312 C 82.949219 10.449219 87.28125 6.027344 93.363281 3.054688 C 92.636719 7.011719 92.074219 10.648438 91.839844 14.324219 Z M 90.691406 3.578125 C 89.144531 4.75 87.691406 5.777344 86.320312 6.902344 C 83.59375 9.136719 81.25 11.746094 79.234375 14.625 C 78.523438 15.644531 77.796875 15.769531 76.714844 15.492188 C 73.847656 14.761719 73.90625 14.820312 75.011719 12.066406 C 76.089844 9.378906 77.808594 7.570312 80.609375 6.5625 C 83.6875 5.453125 86.757812 4.363281 89.921875 3.542969 C 90.101562 3.496094 90.3125 3.554688 90.691406 3.578125 Z M 82.007812 3.789062 C 83.726562 3.621094 85.410156 3.109375 87.164062 3.324219 C 84.542969 4.402344 81.800781 5.046875 79.371094 6.496094 C 79.203125 6.597656 78.824219 6.578125 78.6875 6.453125 C 78.464844 6.25 78.703125 6.003906 78.859375 5.828125 C 79.714844 4.851562 80.5625 3.929688 82.007812 3.789062 Z M 79.152344 3.644531 C 75.304688 4.742188 71.554688 6.105469 67.875 7.648438 C 71.226562 5.117188 75.113281 4.160156 79.152344 3.644531 Z M 67.566406 8.707031 C 71.054688 7.011719 74.636719 5.589844 78.492188 4.785156 C 77.59375 6.304688 76.765625 7.769531 75.082031 8.597656 C 73.171875 9.535156 71.40625 10.765625 69.699219 12.054688 C 68.730469 12.785156 67.65625 12.335938 66.753906 10.898438 C 66.0625 9.796875 66.523438 9.214844 67.566406 8.707031 Z M 65.625 9.855469 C 65.957031 10.988281 66.59375 11.925781 67.558594 12.597656 C 68.03125 12.925781 68.140625 13.152344 67.628906 13.589844 C 65.855469 15.117188 64.136719 16.707031 62.371094 18.242188 C 61.667969 18.851562 60.699219 18.824219 59.859375 19.101562 C 58.371094 19.59375 56.859375 20.023438 55.003906 20.582031 C 57.890625 16.035156 60.746094 12.007812 65.625 9.855469 Z M 57.40625 15.679688 C 55.375 18.101562 54.683594 21.832031 50.503906 22.492188 C 52.660156 19.808594 54.863281 17.574219 57.40625 15.679688 Z M 48.734375 24.898438 C 49.960938 23.738281 51.425781 22.886719 53.371094 22.164062 C 51.675781 25.535156 50.425781 28.675781 49.550781 31.953125 C 49.300781 32.890625 48.980469 32.65625 48.457031 32.214844 C 45.984375 30.121094 46.042969 27.433594 48.734375 24.898438 Z M 45.847656 29.253906 C 46.515625 31.039062 47.5 32.300781 48.796875 33.320312 C 49.230469 33.664062 48.972656 34.179688 48.898438 34.59375 C 48.203125 38.601562 47.523438 42.613281 46.125 46.457031 C 45.925781 47 45.742188 47.496094 45.117188 47.816406 C 42.988281 48.898438 40.980469 50.167969 39.210938 52.421875 C 39.699219 44.023438 41.769531 36.535156 45.847656 29.253906 Z M 39.285156 54.507812 C 39.886719 51.191406 42.84375 50.019531 45.523438 48.332031 C 45.121094 50.710938 44.695312 52.789062 44.4375 54.886719 C 44.183594 56.949219 44.097656 59.035156 43.914062 61.410156 C 41.203125 59.660156 38.652344 57.992188 39.285156 54.507812 Z M 46.339844 79.929688 C 45.851562 80.152344 45.796875 79.597656 45.65625 79.339844 C 42.160156 72.964844 39.992188 66.179688 39.363281 58.492188 C 40.683594 60.027344 41.894531 61.046875 43.277344 61.84375 C 43.839844 62.167969 43.972656 62.652344 43.980469 63.222656 C 44.074219 68.566406 44.9375 73.785156 46.535156 78.882812 C 46.660156 79.273438 46.792969 79.722656 46.339844 79.929688 Z M 46.984375 77.707031 C 45.910156 74.136719 45.121094 70.519531 44.960938 66.789062 C 44.902344 65.496094 44.414062 64.234375 44.734375 62.828125 C 46.398438 63.527344 47.9375 64.191406 49.496094 64.816406 C 50.019531 65.027344 50.269531 65.402344 50.414062 65.90625 C 51.179688 68.539062 52.121094 71.109375 53.25 73.605469 C 53.601562 74.386719 53.472656 74.75 52.714844 75.078125 C 51.011719 75.8125 49.421875 76.742188 48.039062 77.992188 C 47.515625 78.460938 47.257812 78.628906 46.984375 77.707031 Z M 50.855469 86.835938 C 49.628906 84.734375 48.71875 82.492188 47.816406 80.242188 C 47.566406 79.621094 47.6875 79.199219 48.121094 78.773438 C 49.605469 77.3125 51.402344 76.351562 53.257812 75.480469 C 54.179688 75.046875 54.253906 75.859375 54.488281 76.328125 C 56.6875 80.773438 59.300781 84.949219 62.402344 88.816406 C 63.269531 89.898438 64.171875 90.949219 65.355469 92.375 C 60.421875 91.328125 56.039062 90.109375 51.925781 88.03125 C 51.386719 87.757812 51.125 87.300781 50.855469 86.835938 Z M 53.195312 89.5625 C 56.164062 90.554688 59.101562 91.59375 62.144531 92.285156 C 62.824219 92.441406 63.492188 92.691406 64.175781 92.75 C 66.546875 92.941406 67.75 94.429688 68.550781 96.464844 C 68.753906 96.980469 68.804688 97.445312 68.285156 97.566406 C 66.953125 97.882812 66.527344 100.34375 65.085938 99.535156 C 60.542969 96.984375 56.617188 93.59375 53.195312 89.5625 Z M 65.578125 102.265625 C 61.445312 99.824219 58.066406 96.699219 55.015625 93.003906 C 55.546875 92.902344 55.714844 93.261719 55.929688 93.460938 C 58.613281 95.929688 61.480469 98.15625 64.601562 100.039062 C 65.441406 100.546875 65.753906 101.175781 65.578125 102.265625 Z M 66.230469 100.921875 C 69.453125 103.308594 73.324219 103.785156 76.152344 106.445312 C 73.144531 106.769531 66.863281 103.453125 66.230469 100.921875 Z M 76.414062 105.761719 C 79.0625 106.453125 81.382812 107.058594 83.703125 107.667969 C 81.253906 107.5625 78.691406 107.910156 76.414062 105.761719 Z M 77.3125 105.320312 C 73.382812 104.277344 71.988281 100.925781 70.058594 98.011719 C 69.941406 97.839844 69.867188 97.640625 70.015625 97.464844 C 70.210938 97.242188 70.457031 97.269531 70.691406 97.410156 C 70.820312 97.488281 70.941406 97.578125 71.054688 97.675781 C 76.144531 101.953125 81.824219 105.191406 88.105469 107.457031 C 84.398438 107.253906 80.871094 106.261719 77.3125 105.320312 Z M 86.546875 106.058594 C 81.246094 104.125 76.476562 101.265625 72.082031 97.742188 C 71.207031 97.039062 71.351562 96.726562 72.308594 96.464844 C 75.082031 95.703125 77.804688 94.644531 80.78125 95.15625 C 81.234375 95.234375 81.671875 95.210938 81.925781 95.683594 C 84.242188 99.925781 87.144531 103.703125 90.769531 106.910156 C 90.824219 106.960938 90.804688 107.09375 90.832031 107.28125 C 89.296875 107.167969 87.929688 106.5625 86.546875 106.058594 Z M 93.160156 107.484375 C 92.472656 107.402344 91.644531 106.980469 91.507812 106.195312 C 90.953125 102.949219 90.828125 99.648438 90.578125 96.367188 C 90.53125 95.753906 90.886719 95.605469 91.417969 95.628906 C 91.917969 95.648438 92.417969 95.632812 92.914062 95.632812 C 95.089844 95.753906 95.09375 95.753906 94.890625 98.03125 C 94.644531 100.8125 94.3125 103.582031 93.726562 106.3125 C 93.632812 106.742188 93.855469 107.566406 93.160156 107.484375 Z M 94.261719 110.242188 C 93.992188 110.246094 93.488281 110.472656 93.535156 109.847656 C 93.570312 109.335938 93.878906 109.175781 94.351562 109.261719 C 94.878906 109.363281 95.386719 109.503906 95.964844 109.957031 C 95.332031 110.355469 94.777344 110.234375 94.261719 110.242188 Z M 108.714844 95.683594 C 109.160156 95.066406 109.640625 94.835938 110.324219 95.300781 C 110.441406 95.382812 110.605469 95.394531 110.75 95.429688 C 113.632812 96.113281 113.574219 96.089844 112.472656 98.777344 C 111.429688 101.324219 109.898438 103.210938 107.179688 104.195312 C 103.882812 105.394531 100.644531 106.730469 97.125 107.15625 C 101.78125 104.0625 105.503906 100.132812 108.714844 95.683594 Z M 99.476562 107.789062 C 102.675781 106.699219 105.859375 105.570312 108.984375 104.269531 C 106.789062 108.21875 102.820312 107.105469 99.476562 107.789062 Z M 108.738281 107.140625 C 112.328125 106.042969 115.863281 104.785156 119.347656 103.378906 C 116.199219 105.742188 112.550781 106.671875 108.738281 107.140625 Z M 120.03125 102.117188 C 116.414062 103.890625 112.691406 105.355469 108.636719 106.339844 C 109.960938 104.097656 111.589844 102.535156 113.753906 101.453125 C 115.207031 100.726562 116.496094 99.664062 117.851562 98.75 C 118.78125 98.121094 119.9375 98.636719 120.75 100.011719 C 121.335938 101.011719 121.078125 101.609375 120.03125 102.117188 Z M 125.132812 99.117188 C 124.679688 99.425781 124.191406 99.6875 123.753906 100.015625 C 122.648438 100.855469 121.742188 101.238281 121.039062 99.496094 C 120.765625 98.820312 119.960938 98.363281 119.4375 97.847656 C 122.890625 94 126.835938 91.0625 132.070312 90.601562 C 131.460938 92.5625 127.421875 97.574219 125.132812 99.117188 Z M 129.992188 95.210938 C 132.09375 92.792969 132.828125 89.042969 136.65625 88.421875 C 136.167969 89.71875 132.335938 93.761719 129.992188 95.210938 Z M 140.097656 84.203125 C 138.785156 86.441406 136.695312 87.566406 134.40625 88.5 C 135.835938 85.289062 137.09375 82.09375 137.980469 78.765625 C 138.140625 78.152344 138.347656 78.199219 138.785156 78.476562 C 140.820312 79.769531 141.304688 82.136719 140.097656 84.203125 Z M 138.972656 77.816406 C 138.515625 77.457031 138.457031 77.113281 138.542969 76.542969 C 139.199219 72.375 140.035156 68.25 141.398438 64.246094 C 141.554688 63.792969 141.714844 63.367188 142.242188 63.117188 C 144.453125 62.0625 146.445312 60.6875 148.328125 58.445312 C 147.734375 66.902344 145.699219 74.441406 141.578125 81.738281 C 141.058594 79.914062 140.152344 78.753906 138.972656 77.816406 Z M 138.972656 77.816406 " fill-opacity="1" fill-rule="nonzero"/></g><g clip-path="url(#336c49c02d)"><path fill="#ffffff" d="M 93.929688 5.722656 C 80.632812 5.722656 68.125 10.910156 58.726562 20.304688 C 49.328125 29.703125 44.144531 42.210938 44.144531 55.507812 C 44.144531 59.886719 44.703125 64.199219 45.800781 68.328125 L 45.800781 68.785156 L 45.925781 68.785156 C 48.1875 77 52.542969 84.53125 58.726562 90.710938 C 68.125 100.109375 80.632812 105.296875 93.929688 105.296875 C 107.226562 105.296875 119.734375 100.109375 129.132812 90.710938 C 138.53125 81.316406 143.714844 68.804688 143.714844 55.507812 C 143.714844 42.210938 138.53125 29.703125 129.132812 20.304688 C 119.734375 10.910156 107.226562 5.722656 93.929688 5.722656 Z M 104.714844 20.660156 C 106.085938 20.660156 107.207031 21.777344 107.207031 23.148438 C 107.207031 24.515625 106.085938 25.636719 104.714844 25.636719 C 103.347656 25.636719 102.226562 24.515625 102.226562 23.148438 C 102.226562 21.777344 103.347656 20.660156 104.714844 20.660156 Z M 126.292969 42.234375 C 123.097656 42.234375 120.484375 44.847656 120.484375 48.042969 C 120.484375 51.234375 123.097656 53.851562 126.292969 53.851562 C 129.214844 53.851562 131.644531 51.691406 132.039062 48.871094 L 139.921875 48.871094 C 140.230469 51.050781 140.398438 53.269531 140.398438 55.507812 C 140.398438 57.191406 140.3125 58.847656 140.128906 60.488281 L 123.117188 60.488281 L 116.480469 67.125 L 105.484375 67.125 C 105.089844 64.304688 102.664062 62.148438 99.738281 62.148438 C 96.542969 62.148438 93.929688 64.761719 93.929688 67.957031 C 93.929688 71.152344 96.542969 73.765625 99.738281 73.765625 C 102.039062 73.765625 104.054688 72.414062 104.988281 70.445312 L 117.847656 70.445312 L 124.484375 63.808594 L 139.652344 63.808594 C 138.09375 72.519531 134.070312 80.589844 127.929688 87.164062 L 124.757812 83.992188 C 125.210938 83.160156 125.460938 82.226562 125.460938 81.230469 C 125.460938 78.039062 122.847656 75.425781 119.652344 75.425781 C 116.457031 75.425781 113.84375 78.039062 113.84375 81.230469 C 113.84375 84.425781 116.457031 87.039062 119.652344 87.039062 C 120.648438 87.039062 121.601562 86.792969 122.410156 86.335938 L 125.585938 89.507812 C 118.59375 96.042969 109.921875 100.171875 100.566406 101.5 L 100.566406 92.703125 L 104.863281 88.410156 C 107.183594 87.640625 108.867188 85.464844 108.867188 82.890625 C 108.867188 79.699219 106.25 77.082031 103.058594 77.082031 C 99.863281 77.082031 97.25 79.699219 97.25 82.890625 C 97.25 85.171875 98.578125 87.144531 100.484375 88.097656 L 97.25 91.335938 L 97.25 101.851562 C 96.148438 101.933594 95.050781 101.976562 93.929688 101.976562 C 83.371094 101.976562 73.351562 98.472656 65.179688 92.019531 L 71.378906 92.019531 L 76.359375 87.039062 L 81.214844 87.039062 C 82.148438 89.011719 84.136719 90.359375 86.460938 90.359375 C 89.65625 90.359375 92.269531 87.746094 92.269531 84.550781 C 92.269531 81.355469 89.65625 78.742188 86.460938 78.742188 C 83.535156 78.742188 81.109375 80.902344 80.714844 83.722656 L 74.988281 83.722656 L 70.011719 88.699219 L 61.421875 88.699219 C 61.320312 88.597656 61.195312 88.472656 61.089844 88.367188 C 55.53125 82.808594 51.570312 76.109375 49.390625 68.785156 L 58.0625 68.785156 L 61.382812 75.425781 L 69.617188 75.425781 C 70.550781 77.394531 72.542969 78.742188 74.867188 78.742188 C 78.058594 78.742188 80.675781 76.128906 80.675781 72.933594 C 80.675781 69.738281 78.058594 67.125 74.867188 67.125 C 71.941406 67.125 69.511719 69.285156 69.121094 72.105469 L 63.457031 72.105469 L 60.136719 65.464844 L 57.417969 65.464844 L 57.417969 62.085938 C 60.242188 61.691406 62.398438 59.265625 62.398438 56.339844 C 62.398438 53.144531 59.785156 50.53125 56.589844 50.53125 C 53.394531 50.53125 50.78125 53.144531 50.78125 56.339844 C 50.78125 58.640625 52.128906 60.652344 54.101562 61.585938 L 54.101562 65.464844 L 48.519531 65.464844 C 47.816406 62.230469 47.460938 58.890625 47.460938 55.507812 C 47.460938 52.6875 47.710938 49.929688 48.207031 47.210938 L 63.375 47.210938 L 68.351562 52.191406 L 79.554688 52.191406 C 80.488281 54.160156 82.480469 55.507812 84.800781 55.507812 C 87.996094 55.507812 90.609375 52.894531 90.609375 49.699219 C 90.609375 46.507812 87.996094 43.890625 84.800781 43.890625 C 81.878906 43.890625 79.449219 46.050781 79.054688 48.871094 L 69.722656 48.871094 L 64.742188 43.890625 L 48.914062 43.890625 C 50.945312 35.925781 55.097656 28.625 61.070312 22.648438 C 63.042969 20.679688 65.136719 18.914062 67.375 17.359375 L 67.375 31.300781 L 69.742188 33.664062 C 69.285156 34.496094 69.035156 35.429688 69.035156 36.425781 C 69.035156 39.617188 71.648438 42.234375 74.84375 42.234375 C 78.039062 42.234375 80.652344 39.617188 80.652344 36.425781 C 80.652344 33.230469 78.039062 30.617188 74.84375 30.617188 C 73.847656 30.617188 72.894531 30.863281 72.085938 31.320312 L 70.695312 29.929688 L 70.695312 15.246094 C 75.800781 12.296875 81.398438 10.347656 87.292969 9.496094 L 87.292969 33.105469 L 92.832031 37.253906 C 92.476562 38 92.269531 38.851562 92.269531 39.742188 C 92.269531 42.9375 94.882812 45.550781 98.078125 45.550781 C 101.273438 45.550781 103.886719 42.9375 103.886719 39.742188 C 103.886719 36.546875 101.273438 33.933594 98.078125 33.933594 C 96.980469 33.933594 95.941406 34.246094 95.050781 34.785156 L 90.609375 31.445312 L 90.609375 9.167969 C 91.710938 9.082031 92.808594 9.042969 93.929688 9.042969 C 96.75 9.042969 99.511719 9.289062 102.226562 9.789062 L 102.226562 17.921875 C 100.257812 18.855469 98.910156 20.84375 98.910156 23.167969 C 98.910156 26.363281 101.523438 28.976562 104.714844 28.976562 C 107.910156 28.976562 110.523438 26.363281 110.523438 23.167969 C 110.523438 20.242188 108.367188 17.816406 105.546875 17.421875 L 105.546875 10.492188 C 111.769531 12.089844 117.578125 14.972656 122.679688 19 L 122.140625 19 L 122.140625 34.578125 L 108.867188 41.214844 L 108.867188 49.453125 C 106.894531 50.386719 105.546875 52.375 105.546875 54.699219 C 105.546875 57.894531 108.160156 60.507812 111.355469 60.507812 C 114.550781 60.507812 117.164062 57.894531 117.164062 54.699219 C 117.164062 51.773438 115.007812 49.347656 112.183594 48.953125 L 112.183594 43.289062 L 125.460938 36.652344 L 125.460938 21.382812 C 125.917969 21.800781 126.351562 22.214844 126.789062 22.648438 C 133.179688 29.039062 137.472656 36.941406 139.339844 45.550781 L 131.539062 45.550781 C 130.605469 43.582031 128.59375 42.234375 126.292969 42.234375 Z M 128.78125 48.042969 C 128.78125 49.410156 127.660156 50.53125 126.292969 50.53125 C 124.921875 50.53125 123.800781 49.410156 123.800781 48.042969 C 123.800781 46.671875 124.921875 45.550781 126.292969 45.550781 C 127.660156 45.550781 128.78125 46.671875 128.78125 48.042969 Z M 102.226562 67.957031 C 102.226562 69.324219 101.105469 70.445312 99.738281 70.445312 C 98.367188 70.445312 97.25 69.324219 97.25 67.957031 C 97.25 66.585938 98.367188 65.464844 99.738281 65.464844 C 101.105469 65.464844 102.226562 66.585938 102.226562 67.957031 Z M 122.140625 81.230469 C 122.140625 82.601562 121.023438 83.722656 119.652344 83.722656 C 118.285156 83.722656 117.164062 82.601562 117.164062 81.230469 C 117.164062 79.863281 118.285156 78.742188 119.652344 78.742188 C 121.023438 78.742188 122.140625 79.863281 122.140625 81.230469 Z M 100.566406 82.890625 C 100.566406 81.523438 101.6875 80.402344 103.058594 80.402344 C 104.425781 80.402344 105.546875 81.523438 105.546875 82.890625 C 105.546875 84.261719 104.425781 85.382812 103.058594 85.382812 C 101.6875 85.382812 100.566406 84.261719 100.566406 82.890625 Z M 83.972656 84.550781 C 83.972656 83.183594 85.09375 82.0625 86.460938 82.0625 C 87.832031 82.0625 88.949219 83.183594 88.949219 84.550781 C 88.949219 85.921875 87.832031 87.039062 86.460938 87.039062 C 85.09375 87.039062 83.972656 85.921875 83.972656 84.550781 Z M 54.101562 56.339844 C 54.101562 54.96875 55.21875 53.851562 56.589844 53.851562 C 57.957031 53.851562 59.078125 54.96875 59.078125 56.339844 C 59.078125 57.707031 57.957031 58.828125 56.589844 58.828125 C 55.21875 58.828125 54.101562 57.707031 54.101562 56.339844 Z M 72.355469 72.933594 C 72.355469 71.566406 73.476562 70.445312 74.84375 70.445312 C 76.214844 70.445312 77.335938 71.566406 77.335938 72.933594 C 77.335938 74.304688 76.214844 75.425781 74.84375 75.425781 C 73.476562 75.425781 72.355469 74.304688 72.355469 72.933594 Z M 82.3125 49.699219 C 82.3125 48.332031 83.433594 47.210938 84.800781 47.210938 C 86.171875 47.210938 87.292969 48.332031 87.292969 49.699219 C 87.292969 51.070312 86.171875 52.191406 84.800781 52.191406 C 83.433594 52.191406 82.3125 51.070312 82.3125 49.699219 Z M 72.355469 36.425781 C 72.355469 36.03125 72.4375 35.675781 72.605469 35.34375 L 73.765625 34.183594 C 74.097656 34.019531 74.449219 33.933594 74.84375 33.933594 C 76.214844 33.933594 77.335938 35.054688 77.335938 36.425781 C 77.335938 37.792969 76.214844 38.914062 74.84375 38.914062 C 73.476562 38.914062 72.355469 37.792969 72.355469 36.425781 Z M 95.589844 39.742188 C 95.589844 38.375 96.710938 37.253906 98.078125 37.253906 C 99.449219 37.253906 100.566406 38.375 100.566406 39.742188 C 100.566406 41.113281 99.449219 42.234375 98.078125 42.234375 C 96.710938 42.234375 95.589844 41.113281 95.589844 39.742188 Z M 111.355469 52.191406 C 112.722656 52.191406 113.84375 53.308594 113.84375 54.679688 C 113.84375 56.046875 112.722656 57.167969 111.355469 57.167969 C 109.984375 57.167969 108.867188 56.046875 108.867188 54.679688 C 108.867188 53.308594 109.984375 52.191406 111.355469 52.191406 Z M 111.355469 52.191406 " fill-opacity="1" fill-rule="nonzero"/></g></svg>