<svg xmlns="http://www.w3.org/2000/svg" xmlns:xlink="http://www.w3.org/1999/xlink" width="50" zoomAndPan="magnify" viewBox="0 0 37.5 37.499999" height="50" preserveAspectRatio="xMidYMid meet" version="1.0"><defs><clipPath id="4871783d32"><path d="M 1 1.5 L 37 1.5 L 37 36 L 1 36 Z M 1 1.5 " clip-rule="nonzero"/></clipPath></defs><g clip-path="url(#4871783d32)"><path fill="#ffffff" d="M 24.324219 35.808594 C 24.976562 35.589844 25.617188 35.335938 26.242188 35.042969 C 26.863281 34.746094 27.46875 34.417969 28.054688 34.054688 C 28.640625 33.691406 29.203125 33.292969 29.742188 32.863281 C 30.28125 32.429688 30.789062 31.96875 31.273438 31.480469 C 31.757812 30.988281 32.214844 30.472656 32.636719 29.925781 C 33.0625 29.382812 33.449219 28.816406 33.808594 28.226562 C 34.164062 27.636719 34.484375 27.027344 34.769531 26.398438 C 35.054688 25.769531 35.304688 25.128906 35.511719 24.472656 C 35.722656 23.816406 35.894531 23.148438 36.023438 22.472656 C 36.15625 21.792969 36.246094 21.113281 36.296875 20.425781 C 36.347656 19.738281 36.359375 19.046875 36.328125 18.359375 C 36.300781 17.671875 36.230469 16.984375 36.117188 16.304688 C 36.007812 15.625 35.859375 14.953125 35.667969 14.289062 C 35.476562 13.625 35.25 12.976562 34.984375 12.339844 C 34.71875 11.703125 34.417969 11.085938 34.078125 10.484375 C 33.738281 9.886719 33.367188 9.304688 32.960938 8.75 C 32.550781 8.191406 32.113281 7.660156 31.644531 7.15625 C 31.175781 6.652344 30.679688 6.175781 30.152344 5.726562 C 29.628906 5.28125 29.078125 4.867188 28.503906 4.484375 C 27.929688 4.101562 27.335938 3.753906 26.722656 3.441406 C 26.105469 3.128906 25.476562 2.855469 24.828125 2.617188 C 24.179688 2.378906 23.523438 2.179688 22.851562 2.019531 C 22.179688 1.859375 21.503906 1.738281 20.820312 1.65625 C 20.132812 1.578125 19.445312 1.535156 18.757812 1.535156 C 18.066406 1.535156 17.378906 1.578125 16.695312 1.65625 C 16.011719 1.738281 15.332031 1.859375 14.664062 2.019531 C 13.992188 2.179688 13.332031 2.378906 12.6875 2.617188 C 12.039062 2.855469 11.40625 3.128906 10.792969 3.441406 C 10.179688 3.753906 9.582031 4.101562 9.011719 4.484375 C 8.4375 4.867188 7.886719 5.28125 7.359375 5.726562 C 6.835938 6.175781 6.339844 6.652344 5.871094 7.15625 C 5.398438 7.660156 4.960938 8.191406 4.554688 8.75 C 4.148438 9.304688 3.777344 9.886719 3.4375 10.484375 C 3.097656 11.085938 2.796875 11.703125 2.53125 12.339844 C 2.265625 12.976562 2.035156 13.625 1.847656 14.289062 C 1.65625 14.953125 1.507812 15.625 1.398438 16.304688 C 1.285156 16.984375 1.214844 17.671875 1.1875 18.359375 C 1.15625 19.046875 1.167969 19.738281 1.21875 20.425781 C 1.269531 21.113281 1.359375 21.792969 1.492188 22.472656 C 1.621094 23.148438 1.792969 23.816406 2 24.472656 C 2.210938 25.128906 2.457031 25.769531 2.742188 26.398438 C 3.027344 27.027344 3.351562 27.636719 3.707031 28.226562 C 4.0625 28.816406 4.453125 29.382812 4.878906 29.925781 C 5.300781 30.472656 5.753906 30.988281 6.238281 31.480469 C 6.722656 31.96875 7.234375 32.429688 7.773438 32.863281 C 8.3125 33.292969 8.875 33.691406 9.460938 34.054688 C 10.046875 34.417969 10.648438 34.746094 11.273438 35.042969 C 11.898438 35.335938 12.535156 35.589844 13.191406 35.808594 C 14.074219 35.96875 14.390625 35.425781 14.390625 34.957031 C 14.390625 34.640625 14.390625 33.933594 14.390625 32.976562 C 14.386719 32.851562 14.359375 32.730469 14.304688 32.617188 C 14.253906 32.503906 14.179688 32.402344 14.082031 32.320312 C 13.988281 32.238281 13.878906 32.179688 13.757812 32.140625 C 13.636719 32.105469 13.515625 32.09375 13.390625 32.109375 C 9.34375 32.542969 8.457031 29.582031 8.457031 29.582031 C 7.65625 27.542969 6.5 27 6.5 27 C 4.90625 25.90625 6.617188 25.925781 6.617188 25.925781 C 7.183594 26.003906 7.703125 26.203125 8.175781 26.523438 C 8.648438 26.84375 9.027344 27.253906 9.308594 27.75 C 9.519531 28.15625 9.792969 28.507812 10.136719 28.808594 C 10.480469 29.109375 10.867188 29.335938 11.296875 29.488281 C 11.722656 29.644531 12.167969 29.714844 12.621094 29.699219 C 13.078125 29.6875 13.515625 29.589844 13.933594 29.410156 C 14.25 29.296875 14.441406 29.078125 14.507812 28.75 C 14.570312 28.464844 14.660156 28.191406 14.78125 27.925781 C 14.839844 27.800781 14.871094 27.667969 14.871094 27.53125 C 14.871094 27.390625 14.839844 27.257812 14.777344 27.132812 C 14.71875 27.007812 14.632812 26.90625 14.523438 26.820312 C 14.414062 26.734375 14.289062 26.675781 14.15625 26.648438 C 10.71875 25.976562 7.535156 24.09375 7.535156 18.132812 C 7.515625 16.640625 7.9375 15.285156 8.800781 14.066406 C 9.128906 13.625 9.234375 13.132812 9.117188 12.59375 C 8.953125 11.761719 8.953125 10.929688 9.117188 10.09375 C 9.160156 9.871094 9.25 9.667969 9.378906 9.480469 C 9.511719 9.292969 9.675781 9.140625 9.871094 9.023438 C 10.066406 8.90625 10.277344 8.832031 10.503906 8.804688 C 10.726562 8.777344 10.949219 8.792969 11.167969 8.859375 C 12.074219 9.15625 12.921875 9.5625 13.71875 10.082031 C 14.167969 10.347656 14.640625 10.421875 15.148438 10.300781 C 17.5625 9.761719 19.976562 9.761719 22.390625 10.300781 C 22.894531 10.421875 23.371094 10.347656 23.816406 10.082031 C 24.59375 9.578125 25.417969 9.179688 26.292969 8.882812 C 26.523438 8.8125 26.757812 8.792969 26.996094 8.824219 C 27.234375 8.859375 27.457031 8.9375 27.660156 9.066406 C 27.863281 9.195312 28.03125 9.359375 28.160156 9.5625 C 28.292969 9.761719 28.375 9.984375 28.410156 10.21875 C 28.566406 11.019531 28.566406 11.820312 28.410156 12.617188 C 28.296875 13.15625 28.402344 13.644531 28.726562 14.089844 C 29.59375 15.304688 30.015625 16.660156 29.992188 18.15625 C 29.992188 24.132812 26.800781 26 23.375 26.660156 C 23.238281 26.6875 23.117188 26.742188 23.007812 26.824219 C 22.898438 26.90625 22.8125 27.007812 22.75 27.128906 C 22.6875 27.253906 22.65625 27.382812 22.652344 27.519531 C 22.648438 27.65625 22.675781 27.789062 22.734375 27.910156 C 23.042969 28.613281 23.1875 29.351562 23.175781 30.117188 L 23.175781 34.964844 C 23.175781 34.964844 23.425781 35.957031 24.324219 35.808594 Z M 24.324219 35.808594 " fill-opacity="1" fill-rule="nonzero"/></g></svg>