<svg xmlns="http://www.w3.org/2000/svg" xmlns:xlink="http://www.w3.org/1999/xlink" width="50" zoomAndPan="magnify" viewBox="0 0 37.5 37.499999" height="50" preserveAspectRatio="xMidYMid meet" version="1.0"><defs><clipPath id="909c739874"><path d="M 0 0 L 37.007812 0 L 37.007812 37.007812 L 0 37.007812 Z M 0 0 " clip-rule="nonzero"/></clipPath></defs><g clip-path="url(#909c739874)"><path fill="#ffffff" d="M 18.75 0 C 8.394531 0 0 8.394531 0 18.75 C 0 29.105469 8.394531 37.5 18.75 37.5 C 29.105469 37.5 37.5 29.105469 37.5 18.75 C 37.484375 8.394531 29.089844 0 18.75 0 Z M 13.246094 28.734375 L 8.847656 28.734375 L 8.847656 14.546875 L 13.246094 14.546875 Z M 11.054688 12.664062 C 9.644531 12.664062 8.492188 11.507812 8.492188 10.097656 C 8.492188 8.683594 9.644531 7.53125 11.054688 7.53125 C 12.46875 7.53125 13.621094 8.683594 13.621094 10.097656 C 13.621094 11.507812 12.46875 12.664062 11.054688 12.664062 Z M 29.773438 28.734375 L 25.375 28.734375 L 25.375 21.640625 C 25.375 20.632812 25.375 18.132812 23.132812 18.132812 C 20.585938 18.132812 20.421875 20.714844 20.421875 20.714844 L 20.421875 28.734375 L 16.039062 28.734375 L 16.039062 14.546875 L 20.4375 14.546875 L 20.4375 16.492188 C 21.476562 14.382812 23.621094 14.222656 25.015625 14.222656 C 26.605469 14.222656 28.035156 14.835938 28.847656 16.203125 C 29.546875 17.355469 29.773438 19.027344 29.773438 21.640625 Z M 29.773438 28.734375 " fill-opacity="1" fill-rule="nonzero"/></g></svg>